<?xml version="1.0" encoding="UTF-8" standalone="no"?>
<!-- Created with Inkscape (http://www.inkscape.org/) -->

<svg
   version="1.1"
   id="svg398"
   width="1024"
   height="1024"
   viewBox="0 0 1024 1024"
   sodipodi:docname="logo.png"
   inkscape:export-filename="logo.png2.png"
   inkscape:export-xdpi="96"
   inkscape:export-ydpi="96"
   xmlns:inkscape="http://www.inkscape.org/namespaces/inkscape"
   xmlns:sodipodi="http://sodipodi.sourceforge.net/DTD/sodipodi-0.dtd"
   xmlns="http://www.w3.org/2000/svg"
   xmlns:svg="http://www.w3.org/2000/svg">
  <defs
     id="defs402" />
  <sodipodi:namedview
     id="namedview400"
     pagecolor="#ffffff"
     bordercolor="#cccccc"
     borderopacity="1"
     inkscape:showpageshadow="0"
     inkscape:pageopacity="1"
     inkscape:pagecheckerboard="0"
     inkscape:deskcolor="#d1d1d1"
     showgrid="false" />
  <g
     inkscape:groupmode="layer"
     inkscape:label="Image"
     id="g404">
    <path
       style="fill:#000000"
       d="m 496.71154,1004.947 c 0.9625,-0.2516 2.5375,-0.2516 3.5,0 0.9625,0.2515 0.175,0.4573 -1.75,0.4573 -1.925,0 -2.7125,-0.2058 -1.75,-0.4573 z m -17.47358,-1.0442 c 2.35204,-0.2112 5.95205,-0.2083 8.00001,0.01 2.04796,0.2149 0.12357,0.3877 -4.27643,0.3841 -4.40001,0 -6.07562,-0.1795 -3.72358,-0.3907 z m 58.30691,0.3668 c 0.22917,-0.2016 6.71667,-0.5982 14.41667,-0.8812 8.83371,-0.3246 11.60137,-0.2325 7.5,0.2498 -6.83616,0.8039 -22.62969,1.2589 -21.91667,0.6314 z m -71.33334,-1.339 c 1.2375,-0.2384 3.2625,-0.2384 4.5,0 1.2375,0.2383 0.225,0.4333 -2.25,0.4333 -2.475,0 -3.4875,-0.195 -2.25,-0.4333 z m -10,-1 c 1.2375,-0.2384 3.2625,-0.2384 4.5,0 1.2375,0.2383 0.225,0.4333 -2.25,0.4333 -2.475,0 -3.4875,-0.195 -2.25,-0.4333 z m 113.01167,0 c 1.24391,-0.2392 3.04391,-0.2301 4,0.02 0.95609,0.2503 -0.0617,0.446 -2.26166,0.4349 -2.2,-0.011 -2.98225,-0.2159 -1.73834,-0.4551 z m -120.51167,-0.9836 c 0.9625,-0.2516 2.5375,-0.2516 3.5,0 0.9625,0.2515 0.175,0.4573 -1.75,0.4573 -1.925,0 -2.7125,-0.2058 -1.75,-0.4573 z m 129.50001,0.027 c 0.6875,-0.2774 1.8125,-0.2774 2.5,0 0.6875,0.2774 0.125,0.5044 -1.25,0.5044 -1.375,0 -1.9375,-0.227 -1.25,-0.5044 z m -136.93751,-1.02078 c 0.72187,-0.2889 1.58438,-0.2534 1.91667,0.079 0.33229,0.3323 -0.25834,0.5687 -1.3125,0.5253 -1.16495,-0.048 -1.4019,-0.285 -0.60417,-0.60418 z m 144.93751,0.021 c 0.6875,-0.2774 1.8125,-0.2774 2.5,0 0.6875,0.27738 0.125,0.50438 -1.25,0.50438 -1.375,0 -1.9375,-0.227 -1.25,-0.50438 z m 6.0625,-1.0208 c 0.72187,-0.2889 1.58438,-0.2534 1.91667,0.079 0.33229,0.3323 -0.25834,0.5687 -1.3125,0.5253 -1.16495,-0.048 -1.4019,-0.285 -0.60417,-0.6042 z m 6,-1 c 0.72187,-0.2889 1.58438,-0.2534 1.91667,0.079 0.33229,0.3323 -0.25834,0.5687 -1.3125,0.5253 -1.16495,-0.048 -1.4019,-0.285 -0.60417,-0.6042 z m -185.00001,-2.99995 c 0.72187,-0.2889 1.58438,-0.2534 1.91667,0.079 0.33229,0.3323 -0.25834,0.5687 -1.3125,0.5253 -1.16495,-0.048 -1.4019,-0.285 -0.60417,-0.6042 z m 201.00001,0 c 0.72187,-0.2889 1.58438,-0.2534 1.91667,0.079 0.33229,0.3323 -0.25834,0.5687 -1.3125,0.5253 -1.16495,-0.048 -1.4019,-0.285 -0.60417,-0.6042 z m -206.00001,-1 c 0.72187,-0.2889 1.58438,-0.2534 1.91667,0.079 0.33229,0.3323 -0.25834,0.5687 -1.3125,0.5253 -1.16495,-0.048 -1.4019,-0.285 -0.60417,-0.6042 z m -8.99999,-2 c 0.72187,-0.2889 1.58438,-0.2534 1.91667,0.079 0.33229,0.3323 -0.25834,0.5687 -1.3125,0.5253 -1.16495,-0.048 -1.4019,-0.285 -0.60417,-0.6042 z m 229,0 c 0.72187,-0.2889 1.58438,-0.2534 1.91667,0.079 0.33229,0.3323 -0.25834,0.5687 -1.3125,0.5253 -1.16495,-0.048 -1.4019,-0.285 -0.60417,-0.6042 z M 469.71153,981.94704 c 0.9625,-0.25152 2.5375,-0.25152 3.5,0 0.9625,0.25153 0.175,0.45733 -1.75,0.45733 -1.925,0 -2.7125,-0.2058 -1.75,-0.45733 z m 88.01904,-0.004 c 0.97297,-0.25354 2.32297,-0.23687 3,0.0371 0.67703,0.27393 -0.11903,0.48137 -1.76903,0.46099 -1.65,-0.0204 -2.20394,-0.2445 -1.23097,-0.49804 z M 470.96153,964.04512 C 345.16193,951.7988 233.68249,892.88088 151.36691,795.13637 113.81899,750.5506 82.557824,693.84737 65.086604,638.63637 49.514224,589.42591 42.476504,544.14319 42.465604,493.08626 42.453104,434.55121 53.125944,377.35518 74.042564,323.8644 110.94166,229.50109 176.95347,150.11401 265.17542,94.004314 c 14.51879,-9.23404 37.2758,-21.406109 55.44606,-29.656502 90.15553,-40.936066 192.38871,-52.061051 290.84006,-31.649132 48.7457,10.106445 96.95754,28.71774 140.5,54.237444 61.73149,36.180066 117.28616,88.619406 155.94515,147.200246 25.29493,38.32998 45.73455,81.74831 58.45868,124.17929 13.08058,43.61967 19.16348,85.92051 19.38735,134.82071 0.30902,67.50374 -12.19551,128.62688 -38.97236,190.5 -13.35881,30.86812 -37.12858,70.8972 -58.19361,98 -83.05359,106.85879 -205.0765,172.70404 -339.0751,182.96961 -18.36126,1.40665 -61.50333,1.0986 -78.55012,-0.56086 z m 73.40006,-37.47195 c 6.10763,-1.40794 10.0105,-4.48035 12.31809,-9.69704 3.74882,-8.47482 1.11464,-13.37403 -11.74428,-21.84277 -10.9921,-7.23926 -13.27072,-12.86309 -6.90243,-17.03575 4.92369,-3.22612 12.38967,0.65126 14.05871,7.30124 1.12748,4.49227 2.36986,2.28408 2.36986,-4.21217 0,-5.90685 -0.16922,-6.45499 -1.72418,-5.58479 -1.12273,0.62831 -2.39244,0.60725 -3.63992,-0.0604 -1.05366,-0.5639 -4.618,-0.82982 -7.92075,-0.59092 -5.38249,0.38934 -6.3528,0.81388 -9.36007,4.09539 -2.75282,3.00384 -3.35508,4.45767 -3.35508,8.09898 0,5.68734 2.7082,9.00195 11.7382,14.36657 8.65756,5.14336 10.38354,7.12527 11.00473,12.63651 0.45182,4.00851 0.17787,4.82138 -2.54134,7.54058 -2.51866,2.51867 -3.85091,3.04775 -7.67433,3.04775 -2.54462,0 -5.94662,-0.68262 -7.55999,-1.51693 -3.09229,-1.59906 -5.96727,-6.07903 -5.96727,-9.29853 0,-2.7981 3.8121,-7.18452 6.24384,-7.18452 2.88048,0 5.75616,2.82514 5.75616,5.65499 0,3.34567 3.74396,3.21334 4.59118,-0.16228 2.08987,-8.32667 -10.98112,-11.57173 -17.13796,-4.25474 -2.25728,2.68262 -2.59086,3.8485 -2.16985,7.58369 0.58801,5.21684 3.57902,8.65653 9.29986,10.69495 4.73631,1.68762 4.80636,1.69047 10.31682,0.42019 z m -36.33155,-4.40808 c 10.57714,-3.15561 16.4315,-11.30902 16.4315,-22.88428 0,-10.29695 -5.24998,-18.20027 -14.92727,-22.47152 -5.29668,-2.33779 -26.41001,-2.30948 -30.70362,0.0412 -7.3982,4.05034 -10.74257,11.56303 -8.03361,18.04648 1.90418,4.55736 5.64901,7.01217 10.69708,7.01217 h 3.96742 v 7.96242 c 0,7.61797 -0.13436,8.08794 -3.10576,10.86364 l -3.10576,2.90117 h 11.92426 c 7.59464,0 13.71485,-0.53421 16.85576,-1.47128 z m -14.90183,-2.19539 c -0.84037,-0.84036 -0.88007,-26.01634 -0.0476,-30.17874 0.36756,-1.83779 1.41389,-3.34767 2.57536,-3.7163 1.07596,-0.3415 1.70824,-0.86894 1.40508,-1.17211 -0.69823,-0.69822 -15.59862,-0.94345 -15.59914,-0.25673 -2.2e-4,0.2802 0.89962,1.07152 1.99962,1.75848 1.61321,1.00746 2,2.33202 2,6.84895 v 5.59994 l -2.75,-0.65354 c -6.15419,-1.46254 -10.14894,-6.8455 -8.8679,-11.94957 2.57371,-10.2545 22.84195,-12.56793 34.19065,-3.90255 5.85625,4.47158 8.37623,9.82601 8.40529,17.85953 0.0286,7.90948 -3.8378,15.93864 -8.96244,18.61177 -3.40097,1.77402 -12.95916,2.54065 -14.34893,1.15087 z m -11.33134,-78.0292 c 8.28982,-9.68131 12.51972,-13.71775 18.58658,-17.73652 9.84837,-6.5237 12.94353,-7.59981 17.42627,-6.05872 8.94251,3.07429 18.49566,10.51323 27.95945,21.77175 5.30369,6.30949 7.65536,7.04221 11.37792,3.54505 6.68739,-6.28248 -0.60364,-15.25224 -21.70442,-26.70179 -5.51292,-2.99138 -6.77453,-4.05308 -5.34803,-4.50058 1.02679,-0.32212 9.2919,-1.72948 18.3669,-3.12748 51.02338,-7.86008 82.21541,-17.34602 113.78513,-34.60368 31.41034,-17.17052 60.36593,-42.86636 82.66289,-73.35689 23.39791,-31.99606 39.68779,-71.66145 45.18955,-110.03527 1.82891,-12.75632 2.22758,-44.54276 0.67625,-53.9184 -0.54043,-3.26613 -0.82146,2.78073 -0.83657,18 -0.0242,24.40998 -0.71137,30.79933 -5.48183,50.97286 -5.13204,21.70256 -14.80355,46.59233 -25.62472,65.94554 -5.31406,9.50398 -20.4635,31.82129 -22.42302,33.03233 -0.5059,0.31267 -0.0943,-1.3667 0.91456,-3.73192 5.11222,-11.98474 6.12351,-28.9751 2.30945,-38.80041 -2.92476,-7.53441 -8.56343,-15.83765 -15.68662,-23.09937 -9.15175,-9.32972 -8.92448,-9.34171 -11.96641,0.63122 -7.58586,24.87013 -5.17831,42.46289 7.67723,56.10004 2.91726,3.09463 7.40603,7.04776 9.97503,8.78473 l 4.67093,3.15813 -8.67093,9.48193 c -10.554,11.54113 -30.93699,30.87655 -28.93018,27.44332 0.32149,-0.55 2.63548,-4.0528 5.14221,-7.784 6.21691,-9.2537 8.75538,-17.76231 8.86554,-29.716 0.0979,-10.62179 -1.55477,-17.66273 -6.44252,-27.44772 -3.14899,-6.30409 -10.33307,-16.55228 -11.60331,-16.55228 -0.74668,0 -4.34314,6.12632 -9.39282,16 -11.8904,23.24942 -8.91679,47.58549 7.68424,62.88778 l 4.38382,4.04086 -3.68895,2.90723 c -9.0707,7.14854 -34.00053,22.29666 -42.68895,25.9391 l -3,1.25769 3,-2.18691 c 4.79411,-3.49477 13.3447,-12.72461 16.02472,-17.29771 8.40784,-14.34691 9.39717,-31.75144 2.91902,-51.35231 -3.96146,-11.98613 -3.3599,-11.88174 -12.65311,-2.19573 -14.25535,14.85788 -19.64419,25.35968 -20.5254,40 -0.59707,9.91958 1.05874,17.73683 5.70759,26.94616 1.66495,3.29824 3.02718,6.40594 3.02718,6.906 0,1.97873 -44.25826,17.17232 -49.92343,17.1384 -0.86711,-0.005 2.08626,-1.79705 6.56306,-3.98192 11.2063,-5.46915 19.99794,-14.8527 24.25264,-25.8855 3.80247,-9.86013 5.29197,-18.54243 4.91048,-28.62314 -0.36699,-9.69756 0.29251,-9.6189 -15.67579,-1.8698 -9.56881,4.64355 -12.50368,6.65743 -18.5,12.69446 -11.1188,11.19428 -15.62696,22.5421 -15.62696,39.33575 0,7.47449 0.30928,9.41329 1.61852,10.14598 1.84388,1.03189 -10.24457,3.12062 -33.11852,5.72246 -7.7,0.87585 -18.48201,2.49294 -23.96003,3.59354 l -9.96003,2.00108 -10.53997,-2.03653 c -5.79698,-1.1201 -14.58997,-2.51651 -19.53997,-3.10314 -4.95001,-0.58663 -14.80314,-1.94797 -21.89585,-3.0252 -7.09271,-1.07723 -13.00782,-1.9586 -13.14469,-1.9586 -0.13687,0 0.14303,-1.6875 0.62198,-3.75 3.07267,-13.23161 -1.99251,-32.51141 -11.35972,-43.239 -7.49277,-8.58091 -26.10902,-20.26788 -35.97172,-22.58245 l -2.75,-0.64537 v 8.02044 c 0,30.05642 14.70742,51.65319 40.32958,59.22101 9.2631,2.73597 4.49205,2.33708 -6.87476,-0.57477 -18.07931,-4.6314 -47.45482,-14.81803 -47.45482,-16.45604 0,-0.40805 1.12644,-2.75734 2.50321,-5.22064 6.25237,-11.18672 8.42272,-23.46036 6.10992,-34.5526 -2.51771,-12.07501 -7.83104,-21.32293 -18.78015,-32.6871 l -9.66703,-10.03348 -2.17553,5 c -4.54937,10.45578 -6.25552,19.97852 -5.81137,32.43571 0.39744,11.14741 0.56587,11.89124 4.56224,20.14772 4.06548,8.39928 9.70602,15.36855 17.25871,21.32435 2.55328,2.01342 0.70799,1.34974 -6.82195,-2.4536 -10.12654,-5.11487 -36.36374,-21.82758 -37.72512,-24.03034 -0.38974,-0.63061 1.494,-3.36842 4.31507,-6.27151 6.28419,-6.46689 9.57018,-11.76159 12.30292,-19.82362 1.79689,-5.3011 2.07341,-7.95244 1.70303,-16.32871 -0.37823,-8.5535 -0.95434,-11.25236 -3.98284,-18.6579 -1.94736,-4.76185 -5.71086,-11.89253 -8.36332,-15.84596 l -4.82267,-7.18807 -2.78742,3.34597 c -4.2545,5.10701 -11.44141,19.57385 -13.33667,26.84596 -2.28604,8.77155 -1.61547,24.24315 1.38696,32 2.00813,5.18808 5.9559,12.38708 9.8708,18 1.40592,2.01572 0.97054,1.83699 -2.24755,-0.92266 -13.2107,-11.32873 -17.64399,-15.58165 -25.51428,-24.47623 l -8.75894,-9.89889 5.8615,-3.91416 c 12.74946,-8.51376 18.46706,-17.99414 21.28217,-35.28806 0.81418,-5.00169 -1.28378,-18.23287 -4.46644,-28.16849 l -3.00723,-9.38796 -2.7914,1.98765 c -10.67242,7.59944 -22.13365,25.43968 -24.13558,37.5688 -1.56366,9.47384 0.60038,22.79966 5.15115,31.7199 1.06065,2.07906 1.69798,3.7801 1.41628,3.7801 -0.6751,0 -13.69736,-17.6536 -17.91999,-24.29321 -4.83226,-7.59817 -11.503,-20.59598 -17.29901,-33.70679 -13.9077,-31.45974 -21.25213,-68.28354 -20.04454,-100.5 0.28862,-7.7 0.17533,-12.65 -0.25177,-11 -1.46678,5.66665 -1.10354,42.12156 0.5318,53.37166 10.25472,70.54592 51.28031,134.71924 111.08998,173.7699 20.50008,13.38482 49.03243,26.29012 72.18732,32.65064 l 11.67773,3.2078 -10.5,0.60035 c -11.9177,0.68142 -18.38328,2.73758 -27.64581,8.79186 -5.7794,3.77759 -21.35418,18.97593 -21.35418,20.83805 0,1.29667 12.52267,4.9949 23.176,6.84441 13.95108,2.42203 27.53398,0.0284 38.01904,-6.69983 6.10827,-3.91967 14.21921,-12.78542 17.35099,-18.9657 l 2.43836,-4.81186 -5.48007,-1.72744 c -3.01404,-0.95009 -5.3182,-1.88931 -5.12035,-2.08715 0.19784,-0.19784 4.80488,0.54839 10.23787,1.65829 5.43298,1.1099 17.01383,3.15683 25.73522,4.54874 8.7214,1.39191 16.54848,2.91766 17.39352,3.39057 1.17206,0.65592 -0.0984,1.72233 -5.35707,4.49672 -3.79143,2.00028 -9.9424,5.92812 -13.66882,8.72853 -9.8009,7.36538 -12.02042,12.68965 -7.27015,17.43991 3.43477,3.43478 6.17113,3.09101 9.88079,-1.24132 z m -40.52284,-39.98724 c 0.72187,-0.28887 1.58438,-0.25335 1.91667,0.0789 0.33229,0.33229 -0.25834,0.56864 -1.3125,0.52522 -1.16495,-0.048 -1.4019,-0.28494 -0.60417,-0.60416 z m 144.00001,-6 c 0.72187,-0.28887 1.58438,-0.25335 1.91667,0.0789 0.33229,0.33229 -0.25834,0.56864 -1.3125,0.52522 -1.16495,-0.048 -1.4019,-0.28494 -0.60417,-0.60416 z m 4,-1 c 0.72187,-0.28887 1.58438,-0.25335 1.91667,0.0789 0.33229,0.33229 -0.25834,0.56864 -1.3125,0.52522 -1.16495,-0.048 -1.4019,-0.28494 -0.60417,-0.60416 z m 50.1875,40.72873 c 4.675,-1.0511 10.18761,-2.51024 12.25025,-3.24252 l 3.75025,-1.33143 -4.86872,-5.98583 c -12.48974,-15.35547 -29.87318,-24.48584 -46.61895,-24.48584 -6.91128,0 -24.59189,4.07672 -28.70479,6.61864 -1.61832,1.00017 4.51218,10.37184 10.62375,16.24047 6.11204,5.86908 13.49175,10.33045 21.06821,12.73671 6.12811,1.94627 22.63969,1.66674 32.5,-0.5502 z M 365.03323,811.61803 c 4.34039,-1.11008 10.31049,-3.47258 13.26689,-5.25 5.78883,-3.4803 15.47511,-13.29059 14.88135,-15.07187 -0.47171,-1.41514 -12.68433,-8.06743 -19.67651,-10.71791 -12.41757,-4.70705 -29.49626,-3.29465 -43.24864,3.57664 -7.55575,3.77519 -19.35412,12.06427 -20.21764,14.20414 -0.30647,0.75947 2.99504,2.89655 8.71473,5.64107 19.77579,9.48915 31.44992,11.41078 46.27982,7.61793 z m 327.47113,-0.49275 c 6.01315,-1.55817 26.98757,-11.17404 26.91932,-12.34137 -0.0603,-1.03232 -8.40134,-7.31356 -15.12103,-11.38698 -20.84455,-12.63582 -40.18891,-12.6859 -62.58372,-0.16201 -7.13196,3.98842 -7.13057,3.90439 -0.1835,11.12181 7.16734,7.44626 16.83797,12.52011 27.92611,14.65188 4.0842,0.78522 16.73467,-0.24873 23.04282,-1.88333 z M 319.71525,774.1585 c 7.45125,-1.9408 13.57858,-4.87787 17.81249,-8.53823 l 3.4338,-2.96863 -5.54838,-5.27657 c -7.18238,-6.83051 -15.49917,-12.31186 -22.70289,-14.9628 -4.48191,-1.64933 -8.17275,-2.13318 -16.74873,-2.19571 -12.18145,-0.0888 -16.61914,0.85253 -29.36936,6.22993 l -8.36936,3.52977 4.86936,4.33884 c 19.58482,17.45104 39.29233,24.35749 56.62307,19.8434 z m 419.47126,-1.797 c 11.48518,-4.73188 31.99495,-20.28353 29.77503,-22.57709 -2.0657,-2.13422 -15.32237,-7.05117 -23.45205,-8.69846 -18.74987,-3.7992 -34.74024,1.01367 -51.54795,15.51519 -2.75,2.37267 -5.13651,4.66076 -5.30335,5.08465 -0.93817,2.38351 11.1118,10.0378 19.80335,12.57933 7.43178,2.17315 23.2013,1.19612 30.72497,-1.90362 z m -216.73667,-5.29851 c 16.76085,-6.81054 41.63142,-20.54949 57.5117,-31.77049 21.83435,-15.42815 46.04393,-37.78162 60.81902,-56.15613 29.87491,-37.15285 50.10926,-83.00962 57.58328,-130.5 5.30168,-33.68719 10.8101,-85.41722 13.0443,-122.5 0.53019,-8.8 1.2701,-26.80503 1.64425,-40.01117 l 0.68027,-24.01116 -3.90178,-3.48884 c -4.50782,-4.03072 -43.27356,-33.75337 -46.86493,-35.93248 -2.16822,-1.31559 -4.08148,-1.14224 -19.20626,1.74024 -20.28385,3.86569 -57.562,7.20355 -58.76223,5.26153 -0.25584,-0.41396 4.69392,-11.214 10.99946,-24.0001 6.30554,-12.7861 11.46462,-23.40559 11.46462,-23.59888 0,-0.67711 -11.41713,3.58416 -13.81833,5.15748 -2.1304,1.39589 -2.35419,2.10803 -1.84041,5.8565 0.76892,5.60985 -0.10751,6.23132 -3.33525,2.36502 l -2.6492,-3.17332 -3.92841,1.91759 -3.9284,1.91759 -0.29845,6.87128 -0.29846,6.87127 5.62743,-0.7031 c 5.41584,-0.67666 5.5871,-0.62774 4.55478,1.30117 -2.70004,5.04506 -10.78057,8.73185 -17.23933,7.86555 -7.48103,-1.00342 -14.84597,-9.36424 -14.84597,-16.85342 v -3.22693 l 2.90615,2.78426 c 3.12815,2.99696 5.56475,2.94302 8.38406,-0.18561 2.64362,-2.93368 2.91673,-6.43687 0.79709,-10.22447 -1.07728,-1.925 -3.17145,-6.0875 -4.65371,-9.25 -2.93193,-6.25547 -4.12437,-6.86905 -7.0286,-3.61662 -1.04775,1.17336 -4.26134,3.88301 -7.14132,6.02145 -5.77886,4.2909 -7.13319,7.33175 -5.2694,11.83133 1.38248,3.3376 3.65234,4.39162 7.42069,3.44583 3.2242,-0.80923 3.24657,0.0119 0.11223,4.12125 -3.16347,4.14752 -9.97869,7.44676 -15.38275,7.44676 -9.72397,0 -21.44723,-11.12763 -16.71053,-15.86151 1.51894,-1.51803 1.92704,-1.47307 5.5509,0.61151 2.15128,1.2375 4.36315,2.25 4.91527,2.25 0.55211,0 2.41698,-2.05393 4.14415,-4.56429 3.5711,-5.19041 3.45767,-7.52309 -0.57755,-11.87716 -2.58446,-2.78868 -4.59949,-3.00132 -9.70903,-1.02453 -1.62954,0.63044 -1.64521,0.39874 -0.24198,-3.57842 1.43952,-4.08004 1.40073,-4.41887 -0.95626,-8.35406 -1.35114,-2.25585 -3.59921,-5.45154 -4.99572,-7.10154 l -2.53909,-3 -3.04246,3.5 c -1.67335,1.925 -3.95875,5.22811 -5.07866,7.34025 -2.04278,3.85263 -2.00943,4.47642 0.58037,10.8554 0.60825,1.49819 0.34957,1.56775 -2.22136,0.59733 -4.28636,-1.61792 -7.64305,-0.3584 -9.82053,3.68493 l -1.89847,3.52524 2.47826,4.60716 c 1.36304,2.53393 2.99712,4.81463 3.6313,5.06821 0.63417,0.25358 3.05447,-0.50898 5.37844,-1.69458 3.70647,-1.8909 4.40488,-1.97615 5.68692,-0.69411 1.28204,1.28204 1.27766,1.81708 -0.0356,4.35664 -3.60693,6.97505 -10.42927,11.35353 -17.69053,11.35353 -6.46679,0 -14.47016,-5.03372 -16.31664,-10.26237 -0.51369,-1.45462 -0.20308,-1.65713 1.77882,-1.1597 3.84518,0.96507 6.44316,-0.40843 7.36069,-3.89147 0.46167,-1.75255 0.65132,-3.92931 0.42144,-4.83725 -0.44159,-1.74408 -15.60327,-14.84921 -17.17947,-14.84921 -0.50729,0 -1.24159,1.0125 -1.63176,2.25 -0.39018,1.2375 -2.26456,5.53132 -4.1653,9.54182 -3.77177,7.9583 -3.7833,10.71117 -0.0594,14.1805 2.89848,2.70035 4.63749,2.55691 7.99461,-0.65941 l 2.80472,-2.68709 v 2.87136 c 0,4.23436 -3.72873,11.19413 -7.56493,14.12014 -5.1169,3.90285 -10.26957,4.18761 -16.91776,0.93495 -8.76181,-4.28675 -9.51996,-7.99244 -1.50028,-7.33302 3.40087,0.27964 3.41785,0.25961 4.28916,-5.05849 0.78435,-4.78735 0.64888,-5.57968 -1.31054,-7.66539 -3.55906,-3.78844 -7.05253,-4.13056 -9.78152,-0.95792 -2.79825,3.25316 -3.40266,2.81601 -3.71308,-2.68553 -0.16305,-2.88969 -0.90472,-4.76038 -2.35199,-5.9323 -2.20334,-1.78416 -11.87277,-4.52924 -12.77522,-3.62679 -0.28502,0.28502 0.56019,2.24823 1.87824,4.36269 2.96788,4.76117 11.24569,21.78088 16.61927,34.1703 l 4.03434,9.30163 -10.70285,-0.62191 c -18.2708,-1.06165 -38.13031,-3.50655 -52.20108,-6.42648 l -13.49826,-2.80112 -21.00174,16.03657 c -11.55096,8.82011 -23.38206,17.87007 -26.29134,20.11103 l -5.28958,4.07446 0.59527,23 c 1.96085,75.76279 11.68798,164.67074 21.56839,197.13947 10.81048,35.52514 27.06709,67.66109 47.73414,94.36053 16.21893,20.95299 45.6992,47.89794 70.25346,64.21162 17.22606,11.44486 53.01224,29.64081 58.5055,29.74788 1.14268,0.0223 4.9275,-1.11752 8.41071,-2.53288 z M 498.31572,737.68125 C 430.17039,703.31687 385.64143,652.5536 362.0852,582.3777 c -6.53511,-19.46865 -10.65185,-41.84422 -15.604,-84.81204 -3.89196,-33.76901 -7.27714,-85.27 -7.4475,-113.30379 l -0.0722,-11.8745 17.5,-13.29018 17.5,-13.29018 13.2837,2.38195 c 25.19362,4.51756 39.91559,5.73195 62.21629,5.13212 21.38366,-0.57517 32.69754,-1.93643 52.00001,-6.25653 6.325,-1.41561 12.175,-2.58363 13,-2.59561 0.825,-0.012 7.99754,1.36137 15.93898,3.05189 36.43254,7.75549 66.94226,8.16639 107.06102,1.44185 8.525,-1.42893 16.0386,-2.64941 16.69688,-2.71218 0.65829,-0.0628 9.09579,5.91957 18.75,13.2941 15.25915,11.65594 17.55312,13.76894 17.55312,16.16832 0,18.31158 -4.24355,85.50552 -7.06838,111.92345 -5.42402,50.7255 -9.30343,72.14969 -17.56443,97 -13.01782,39.15954 -32.88674,71.57754 -61.32696,100.06065 -15.31759,15.34069 -25.2268,23.51208 -42.54023,35.07976 -12.68401,8.47462 -44.35195,24.88509 -47.90132,24.82269 -1.15427,-0.0203 -8.2393,-3.13349 -15.7445,-6.91822 z m -6.85016,-42.79488 c 0.007,-6.293 2.8318,-21.62615 5.60502,-30.42162 6.80154,-21.57158 19.41147,-39.36695 44.90067,-63.36468 28.6136,-26.93931 41.12212,-45.38059 47.53225,-70.07666 5.82336,-22.43543 2.22601,-52.89997 -8.51613,-72.11975 -3.94922,-7.06592 -2.27015,-6.15587 2.84871,1.54399 11.85661,17.83489 17.50443,42.33993 14.68939,63.73508 -1.45904,11.08913 -6.82961,27.47138 -12.18833,37.179 -7.30396,13.23152 -15.89813,23.45727 -38.89123,46.27464 -24.97805,24.78715 -31.53718,33.25553 -38.35966,49.52553 -4.01131,9.56601 -5.84624,16.61539 -3.4149,13.11924 14.97544,-21.53396 33.48454,-36.7649 68.29019,-56.19525 21.69994,-12.11405 21.87461,-12.21822 24.34503,-14.51977 3.0232,-2.81654 5.78869,-9.35876 8.42458,-19.92975 2.59195,-10.39472 3.11395,-37.86617 0.89307,-47 -2.41182,-9.91915 -2.39351,-9.74208 -0.72395,-7 5.39305,8.85754 10.41963,34.99732 9.00768,46.84264 -0.78379,6.57545 -0.39713,6.38292 5.41908,-2.6982 8.38119,-13.08597 12.85044,-29.48097 11.64308,-42.71144 -1.35737,-14.87423 -7.40109,-27.04258 -23.98847,-48.29811 -2.58708,-3.31515 -0.73208,-2.2024 7.73126,4.63775 3.71325,3.00108 8.83825,8.21745 11.38888,11.59193 4.59047,6.07319 11.35976,18.83514 11.35976,21.41624 0,0.73547 0.45,1.05911 1,0.71919 2.42157,-1.49661 0.45899,-24.60294 -3.04684,-35.87183 -4.95656,-15.932 -22.48968,-33.61719 -45.45316,-45.8474 -8.02187,-4.27239 -7.54106,-4.64871 2.14466,-1.67858 9.9397,3.048 19.77207,8.20125 28.5505,14.96362 l 7.69517,5.92788 -1.55669,-5.24685 c -4.9147,-16.56511 -17.36006,-29.10558 -35.00299,-35.2705 -3.56497,-1.2457 -6.05433,-2.52908 -5.5319,-2.85196 0.52243,-0.32288 4.22827,-0.89175 8.2352,-1.26415 l 7.28532,-0.6771 -4.40963,-3.84755 c -9.88859,-8.62811 -25.43849,-14.12392 -38.56119,-13.62868 l -7.76648,0.2931 -1.19393,4.13404 -1.19392,4.13405 4.86045,0.64476 c 5.85735,0.77701 9.97522,3.95152 12.86251,9.91586 4.6414,9.58785 3.51418,22.03109 -3.36281,37.12165 l -3.55667,7.80459 3.45789,3.82746 c 7.57945,8.38955 10.4629,18.54407 8.52618,30.02625 -1.0851,6.43323 -2.85651,9.76683 -3.75599,7.06839 -1.01951,-3.05854 -2.00645,-0.49481 -2.44596,6.35376 -0.40077,6.24474 -1.1831,8.93445 -4.58106,15.75 -4.45837,8.94249 -12.48922,18.92866 -14.57782,18.12719 -0.73654,-0.28264 -2.96182,1.58706 -5.11278,4.29577 -4.62051,5.81863 -8.27562,9.16488 -15.50806,14.1976 -6.14784,4.27799 -19.95613,11.47584 -20.66167,10.7703 -0.25118,-0.25119 0.28657,-3.01344 1.195,-6.13834 0.90844,-3.1249 1.49757,-5.8265 1.30918,-6.00357 -0.18838,-0.17706 -3.6933,1.64861 -7.7887,4.05705 -7.13189,4.19415 -23.51084,10.41319 -27.42498,10.41319 -1.67551,0 -1.59861,-0.35085 0.75247,-3.43328 1.44028,-1.8883 2.61869,-3.69745 2.61869,-4.02032 0,-2.30835 -26.00857,15.14265 -33.90339,22.7482 -12.07061,11.62832 -13.95131,27.90931 -5.41993,46.91974 l 2.78032,6.19539 1.28922,-7.72911 c 2.30101,-13.79502 7.53602,-24.91556 17.17218,-36.47829 1.96988,-2.36371 4.68261,-5.01958 6.0283,-5.90193 2.072,-1.35858 1.88308,-0.83647 -1.23355,3.40923 -11.38744,15.51279 -17.25021,38.8611 -13.58394,54.09755 1.97258,8.19774 8.32728,20.44013 14.73083,28.37907 5.71718,7.088 11.97937,13.30767 12.68661,12.60044 0.16253,-0.16253 -0.85043,-4.11853 -2.25103,-8.7911 -2.04855,-6.83426 -2.64293,-11.34343 -3.03951,-23.05868 -0.59088,-17.45485 1.18455,-26.37731 7.94682,-39.93691 3.45798,-6.93385 6.0869,-10.3642 14.26805,-18.61766 8.08247,-8.15391 13.46694,-12.37529 27.74177,-21.74937 19.15501,-12.57883 28.59872,-20.62879 34.33013,-29.26352 2.00991,-3.02805 3.87828,-5.28163 4.15195,-5.00796 0.95753,0.95752 -5.89517,12.45936 -11.0219,18.49961 -5.60912,6.60857 -15.12565,14.6677 -26.17292,22.16469 -22.90807,15.54605 -36.42571,32.30982 -41.66764,51.67373 -2.49574,9.21934 -3.01912,29.1403 -1.0194,38.80048 1.65056,7.97345 8.42822,28.5 9.41042,28.5 0.42714,0 0.77843,-1.6875 0.78064,-3.75 z m -66.02878,-132.8151 c -0.53639,-1.4108 -0.95907,-3.5483 -0.93929,-4.75 0.034,-2.06632 0.16185,-2.03103 2.35554,0.65034 2.60995,3.19019 7.47045,6.64822 9.3585,6.65817 0.6875,0.004 1.25,-0.92299 1.25,-2.05915 0,-2.85513 1.7542,-5.8623 5.59622,-9.59341 1.79515,-1.74332 3.96255,-4.52072 4.81646,-6.17199 1.63107,-3.15415 2.22834,-3.37995 13.57587,-5.13247 8.04883,-1.24306 10.62638,-3.0902 14.80503,-10.60963 l 3.29357,-5.92676 -0.60159,4.5 c -0.33087,2.475 -1.82339,6.975 -3.31672,10 -2.40722,4.87626 -3.30016,5.72681 -7.87374,7.5 -4.56349,1.76927 -5.23204,2.40378 -5.79513,5.5 -0.35009,1.925 -0.89518,4.57466 -1.21132,5.88813 -0.55075,2.28821 -0.41367,2.3579 3.27619,1.66568 10.62332,-1.99294 20.46314,-9.05371 25.8564,-18.55381 1.83837,-3.23824 2.55806,-3.91302 2.56672,-2.40655 0.0163,2.83989 -3.54163,12.98491 -6.03755,17.21519 -1.11742,1.89388 -1.88191,3.59318 -1.69887,3.77622 0.59184,0.59184 10.63564,-4.41115 15.30467,-7.62353 9.24762,-6.36253 14.79445,-13.41258 17.86879,-22.71133 0.95466,-2.8875 1.9892,-5.25 2.29898,-5.25 0.89539,0 -0.58956,13.80344 -2.34565,21.80422 -0.88177,4.01732 -1.31728,7.59016 -0.9678,7.93963 1.36422,1.36422 15.20648,-9.5233 19.82133,-15.59031 6.5304,-8.58534 8.14503,-14.61488 7.5186,-28.07676 -0.27069,-5.81723 -0.85176,-11.4381 -1.29125,-12.49082 -0.57093,-1.36757 -0.4591,-1.70393 0.39169,-1.17811 2.52148,1.55835 7.18963,11.42107 8.7999,18.59215 l 1.68414,7.5 3.03641,-6.49793 c 2.44114,-5.22404 3.11481,-8.16474 3.43629,-15 0.38359,-8.15588 -0.5122,-12.6234 -4.26125,-21.25207 -1.26408,-2.90936 0.78655,-1.99517 6.51339,2.90372 l 5.44023,4.65371 0.32297,-3.28254 c 0.47566,-4.83449 -2.46594,-12.81471 -6.89874,-18.71546 -4.04683,-5.38698 -12.10083,-11.64504 -22.42391,-17.42368 -10.35483,-5.79641 -1.39893,-4.16685 13.79112,2.50934 l 3.79143,1.66638 2.57818,-5.78074 c 8.09861,-18.15853 8.44766,-29.67083 1.1369,-37.49703 -2.60824,-2.79212 -3.24649,-2.99416 -8.16896,-2.58595 -3.29446,0.2732 -8.20086,1.80158 -12.80971,3.99031 -6.82652,3.2419 -24.07266,14.02963 -29.59504,18.51216 l -2.27575,1.84724 5.31675,5.48925 c 4.67225,4.82383 11.73476,15.33559 11.73476,17.46588 0,0.41753 -3.7125,-3.02269 -8.25,-7.64493 -4.5375,-4.62224 -10.3875,-9.51786 -13,-10.87915 -2.6125,-1.36129 -4.75,-2.77682 -4.75,-3.14563 0,-0.81645 13.94571,-12.10865 19.41921,-15.72423 l 3.94915,-2.60865 -9.24555,-0.28834 c -5.3294,-0.1662 -15.66488,0.56582 -24.4008,1.72821 -13.81721,1.83851 -15.51137,2.28754 -19.18864,5.08585 -7.48706,5.69747 -19.9978,13.74435 -25.73445,16.55235 -5.66049,2.77071 -5.70577,2.82816 -6.3607,8.07005 l -0.65963,5.27948 -12.1393,8.49876 c -33.24705,23.27635 -34.15125,24.00468 -33.99571,27.38352 0.1749,3.7993 4.19139,12.41015 5.43124,11.64388 0.49143,-0.30372 1.26501,-1.99257 1.71908,-3.75299 0.76697,-2.97361 1.18802,-3.23767 5.93287,-3.72071 2.98617,-0.304 5.97239,-1.30283 7.19027,-2.40499 1.68038,-1.52072 2.08295,-1.59514 2.08295,-0.38505 0,1.9136 -2.42918,4.03892 -7.5669,6.62038 -5.19947,2.61249 -6.75604,4.53589 -6.65132,8.21881 0.18642,6.55674 5.70035,12.80823 15.29906,17.34549 3.14681,1.48748 4.28555,2.93573 7.69812,9.79044 0.18212,0.36583 -0.62469,0.96851 -1.79291,1.33929 -5.64454,1.79151 -7.85755,13.77789 -4.07964,22.09669 1.86391,4.10424 8.32873,11.39888 10.10217,11.39888 0.58056,0 0.56777,-0.98408 -0.0333,-2.5651 z m 1.17499,-31.96193 c -3.45468,-2.90692 -5.12238,-8.23173 -3.00713,-9.60148 3.05888,-1.9808 17.26631,-5.87149 21.44063,-5.87149 5.68702,0 10.48053,1.99496 13.24836,5.51368 2.62128,3.33241 2.77884,6.62916 0.4179,8.74373 -2.32448,2.08191 -11.80107,3.74259 -21.35693,3.74259 -6.81872,0 -8.09696,-0.30068 -10.74283,-2.52703 z m 57.20699,-14.45567 c -0.18196,-11.44602 -2.02539,-15.41633 -8.93506,-19.24394 l -4.92217,-2.72664 6,-0.0453 c 3.62862,-0.0274 7.58093,-0.77386 10.00001,-1.88864 5.32509,-2.45396 13.03415,-9.41058 16.67469,-15.04715 1.93243,-2.99196 2.7139,-3.70392 2.26727,-2.06561 -1.79972,6.60166 -4.08953,10.04561 -11.01445,16.56613 l -7.50437,7.06612 0.28843,9.79802 0.28843,9.79803 7.62448,-5.10254 c 4.19346,-2.80639 10.33735,-8.0026 13.65307,-11.54712 7.74942,-8.28415 10.41914,-14.92619 10.48211,-26.07864 0.0447,-7.92176 0.0593,-7.96604 1.48625,-4.5279 0.97306,2.34446 1.32952,6.07934 1.09758,11.5 -0.63015,14.72755 -7.91008,24.61915 -26.69949,36.2779 -5.53992,3.4375 -10.20115,6.24982 -10.35829,6.24961 -0.15714,-2.2e-4 -0.34996,-4.04226 -0.42849,-8.98231 z M 443.46153,470.7417 c 0,-2.42717 3.05222,-7.00276 6.64897,-9.96752 l 3.6907,-3.04218 -2.26894,-1.83727 c -1.5501,-1.2552 -2.43222,-3.28587 -2.78431,-6.40962 -0.48241,-4.27989 -0.30019,-4.73351 2.84911,-7.09248 3.89375,-2.91661 9.86447,-6.07814 9.86447,-5.2233 0,0.32137 -1.3355,2.24617 -2.96779,4.27733 -1.63228,2.03116 -3.09478,4.81727 -3.25,6.19136 l -0.28221,2.49835 11.5,0.61844 c 13.70787,0.73717 13,0.63472 13,1.88156 0,0.55 -1.09763,1 -2.43918,1 -1.40432,0 -4.37876,1.67869 -7.01081,3.95671 -2.54056,2.19885 -6.13266,4.24957 -8.08528,4.61588 -1.93251,0.36255 -4.12962,1.53859 -4.88248,2.61344 -0.83803,1.19645 -1.51943,1.50242 -1.75723,0.78904 -0.39236,-1.17709 -6.3426,1.68829 -10.07502,4.8517 -1.2107,1.02613 -1.75,1.11197 -1.75,0.27856 z m 104.54941,-26.60533 c 4.93449,-7.69273 7.4506,-13.92034 7.4506,-18.44092 0,-8.79208 -2.68615,-9.031 -17.85203,-1.58785 -6.13139,3.00917 -11.14797,5.29173 -11.14797,5.07234 0,-0.21939 3.35085,-2.64008 7.44633,-5.3793 9.2907,-6.214 17.86013,-9.60581 20.58488,-8.14757 7.11077,3.80557 4.48859,19.43045 -4.70262,28.02156 -3.69443,3.45323 -3.69881,3.45436 -1.77919,0.46174 z m -63.0494,-32.0603 c 5.5,-0.87196 17.44214,-1.71673 26.53809,-1.87727 13.49547,-0.2382 17.17094,-0.61916 19.978,-2.07075 3.40814,-1.76242 3.41799,-1.78696 1.06562,-2.65716 -3.35114,-1.23966 -35.08724,-1.15492 -44.08171,0.11771 -14.177,2.00592 -18.19957,3.08534 -17.57391,4.7158 0.31565,0.82255 0.5739,2.16407 0.5739,2.98115 0,0.95956 0.61966,1.28913 1.75,0.93075 0.9625,-0.30517 6.25,-1.26827 11.75001,-2.14023 z m -0.98076,-8.99217 c 10.80101,-1.76418 41.44158,-2.15394 51.55461,-0.6558 7.94772,1.17737 10.64128,0.0247 11.96252,-5.11917 0.92665,-3.60766 9.18916,-28.80833 10.64464,-32.46618 0.3831,-0.9628 -0.21355,-1.11933 -2.33314,-0.61211 -4.18431,1.00132 -5.20188,2.14555 -5.54204,6.23184 -0.27781,3.33724 -0.55202,3.64518 -2.99256,3.36062 -3.83472,-0.44713 -6.63887,2.64143 -6.04874,6.66224 0.37063,2.52528 0.9364,3.15103 2.84897,3.15103 2.98388,0 3.0354,1.31755 0.1564,3.99974 -2.93805,2.73722 -6.34679,3.51407 -9.37171,2.13583 -3.2985,-1.5029 -4.01089,-3.80107 -1.90095,-6.13252 2.2148,-2.44732 1.30805,-7.00305 -1.39385,-7.00305 -2.71392,0 -4.18189,2.29551 -3.87386,6.05769 0.51964,6.3467 -7.40322,7.85953 -12.81565,2.4471 -3.40118,-3.40118 -3.1567,-7.58917 0.6994,-11.98103 2.56002,-2.91569 2.89368,-3.81044 1.87756,-5.0348 -0.67965,-0.81893 -1.77586,-1.48896 -2.43603,-1.48896 -0.66016,0 -2.20654,-2.01481 -3.4364,-4.47735 -1.22985,-2.46254 -2.67265,-4.74715 -3.20622,-5.07692 -0.53357,-0.32976 -1.96959,1.67444 -3.19116,4.45378 -1.39419,3.17209 -2.85055,5.06213 -3.91201,5.07692 -2.93832,0.041 -3.04167,1.95836 -0.28232,5.23767 3.96465,4.71172 4.72415,7.40013 3.02103,10.6936 -2.748,5.31404 -9.66512,7.70539 -14.61917,5.05406 -1.59767,-0.85504 -1.83088,-1.72044 -1.32171,-4.90458 0.52703,-3.29587 0.29712,-4.03821 -1.55822,-5.03116 -4.23765,-2.26792 -6.91969,3.24901 -3.44568,7.08774 1.48389,1.63968 1.40469,1.96951 -1.06629,4.44048 -2.18257,2.18257 -3.24972,2.55329 -5.85296,2.03328 -3.6986,-0.73882 -8.25486,-4.85437 -7.22284,-6.52421 0.3891,-0.62957 1.56957,-0.87104 2.62329,-0.5366 1.66235,0.52761 1.91584,0.0964 1.91584,-3.25932 0,-4.86408 -1.39523,-6.26739 -6.23133,-6.26739 -3.77885,0 -3.82799,-0.0494 -3.58829,-3.60862 0.17427,-2.5877 -0.29531,-4.00225 -1.65981,-5 -1.66208,-1.21534 -5.52057,-1.96357 -5.52057,-1.07053 0,0.17647 1.74909,5.01397 3.88688,10.75 2.13778,5.73603 5.17528,14.83417 6.75,20.21808 2.54146,8.68918 3.08997,9.73275 4.88236,9.28886 1.11058,-0.27503 6.51058,-1.23365 12.00001,-2.13026 z m -195.1372,323.44361 c 3.74732,-1.23016 7.03368,-2.81092 7.30302,-3.51279 0.69118,-1.80119 -6.10108,-11.69277 -12.05034,-17.54893 -8.67445,-8.53869 -22.69315,-13.83807 -36.56838,-13.82363 -9.6452,0.01 -25.06634,3.15055 -25.06634,5.10476 0,1.91385 11.44862,15.00358 17.5,20.00856 6.31673,5.22444 15.60558,10.19472 22.11843,11.83514 5.88171,1.48145 19.06087,0.46552 26.76361,-2.06311 z m 479.36203,1.68907 c 7.78273,-2.07189 13.00055,-4.8933 20.3744,-11.01697 7.11448,-5.90828 18.45781,-19.82178 17.4671,-21.42479 -0.94536,-1.52961 -10.14565,-3.19849 -21.08557,-3.82478 -11.30875,-0.64742 -18.671,0.76585 -28.27014,5.42676 -7.17554,3.48412 -18.01404,13.60971 -21.57891,20.15956 l -2.73133,5.01835 4.04086,2.0615 c 9.43184,4.81177 21.91952,6.22634 31.78359,3.60037 z m -506.99407,-52.2105 c 3.20868,-0.85989 2.84649,-2.97487 -2.25443,-13.16445 -6.84669,-13.67692 -17.04846,-22.32765 -31.3267,-26.56393 -7.48174,-2.21979 -22.65113,-3.28807 -23.65376,-1.66578 -1.22952,1.98941 8.76319,20.87476 14.29932,27.02445 5.83259,6.47901 13.5357,11.35012 21.18557,13.39685 5.6379,1.50842 17.73284,2.04942 21.75,0.97286 z m 535.6542,-3.67745 c 11.18834,-5.33468 18.92096,-14.16771 25.31076,-28.91267 2.2547,-5.2029 3.12494,-8.33969 2.48987,-8.97476 -1.51923,-1.51923 -21.1311,0.80312 -27.34556,3.23814 -7.72793,3.02805 -14.2123,7.44359 -19.39282,13.20557 -4.57668,5.09037 -11.02826,17.1503 -11.63616,21.75146 -0.28452,2.15358 0.1547,2.59477 3.16971,3.18389 1.925,0.37614 7.28189,0.50565 11.9042,0.2878 6.98999,-0.32944 9.59823,-0.96542 15.5,-3.77943 z M 273.66115,662.03522 c 11.14777,-5.649 19.60676,-17.32776 22.04433,-30.43513 1.17884,-6.33891 0.0863,-19.83607 -2.2856,-28.2374 l -1.06543,-3.77369 -4.64271,3.27369 c -14.20453,10.01593 -22.93071,23.50996 -23.95416,37.04235 -0.68138,9.00946 1.9965,24.73133 4.21245,24.73133 0.3069,0 2.8679,-1.17052 5.69112,-2.60115 z m 489.65426,-1.14885 c 2.19954,-5.51637 3.11771,-15.39541 2.10711,-22.67154 -1.78717,-12.86725 -8.994,-23.99206 -21.85025,-33.72909 l -6.61073,-5.00681 -1.28065,4.32872 c -1.80517,6.10166 -2.82493,18.23883 -2.13618,25.42483 1.15941,12.09664 9.78342,25.41776 20.3964,31.50539 6.26632,3.59438 7.98944,3.62167 9.3743,0.1485 z M 243.40717,619.91669 C 240.122,599.39556 224.80163,584.93896 203.23861,582.01285 l -4.72293,-0.64091 1.9976,7.20858 c 6.21562,22.42984 18.1349,34.37948 35.94826,36.03985 3.575,0.33323 6.77245,0.48679 7.10545,0.34125 0.333,-0.14553 0.26108,-2.41575 -0.15982,-5.04493 z m 561.36868,1.43332 c 7.96434,-3.64619 14.39099,-9.97818 18.22602,-17.95753 3.31562,-6.89866 7.16341,-20.38571 6.11503,-21.43408 -1.01306,-1.01307 -13.90232,2.62198 -20.31404,5.72899 -12.00502,5.81743 -20.89228,18.61571 -22.11477,31.84681 l -0.49873,5.39784 6.52525,-0.52379 c 3.87773,-0.31126 8.7714,-1.5521 12.06124,-3.05824 z m -545.31431,-3.5112 c 3.18458,-1.48158 8.08927,-5.13932 11.65048,-8.68851 5.22619,-5.20853 6.47472,-7.17298 8.30801,-13.07182 2.61651,-8.41892 4.06422,-27.44211 2.08841,-27.44211 -2.36724,0 -15.04763,7.2485 -19.4325,11.10821 -10.53781,9.27576 -15.76447,24.89144 -12.98419,38.79285 0.72099,3.60495 1.18697,3.57355 10.36979,-0.69862 z m 520.60104,0.251 c 0.35153,-1.4006 0.44951,-6.4631 0.21773,-11.25 -0.36353,-7.50798 -0.88298,-9.56768 -3.78181,-14.99544 -1.93152,-3.6166 -5.78406,-8.5359 -9.06034,-11.56916 -5.99524,-5.55054 -18.30368,-12.64511 -19.63258,-11.31621 -1.11312,1.11311 -0.70586,16.28428 0.58964,21.96542 2.73672,12.0013 10.35818,21.56955 21.30654,26.749 7.70777,3.64639 9.53175,3.71969 10.36082,0.41639 z M 235.20686,573.38637 c -0.31458,-4.83669 -1.44232,-10.64328 -2.72574,-14.03458 -2.99488,-7.91362 -11.02283,-16.41842 -19.90225,-21.08442 -10.26847,-5.39593 -10.51952,-5.28104 -9.67268,4.42687 1.11918,12.83004 5.18366,22.4166 12.68418,29.91712 3.7442,3.74419 14.13438,9.02302 17.76213,9.02422 2.37147,7.8e-4 2.38658,-0.0664 1.85436,-8.24921 z m 570.08759,4.6972 c 12.69578,-6.35144 18.59092,-15.7274 20.40955,-32.46049 0.59727,-5.4954 0.82903,-10.24855 0.51503,-10.56256 -1.24023,-1.24022 -15.90764,6.63616 -20.69252,11.11185 -7.63335,7.1401 -10.42391,13.71193 -10.90463,25.68067 -0.46944,11.68749 -0.36136,11.75058 10.67257,6.23053 z m -550.5304,-2.72815 c 10.52135,-4.81684 16.756,-12.91061 20.16583,-26.17915 1.36806,-5.3235 2.0891,-13.5399 1.18821,-13.5399 -1.16514,0 -11.90467,4.08922 -15.20465,5.78938 -11.45187,5.90001 -18.39788,16.68848 -19.24519,29.89138 l -0.48905,7.62045 4.07367,-0.5464 c 2.24051,-0.30051 6.52055,-1.66661 9.51118,-3.03576 z m 532.93992,-2.95178 c -0.7975,-17.74957 -12.32292,-30.41841 -32.99243,-36.26555 -2.01081,-0.56883 -2.24843,-0.28383 -2.23522,2.68089 0.0226,5.08111 2.69674,15.31459 5.39137,20.63219 5.32284,10.50411 18.13732,19.42996 27.09385,18.87207 2.99549,-0.18659 2.99961,-0.19548 2.74243,-5.9196 z M 237.01852,536.02661 c 1.54076,-12.33185 -0.84729,-21.01901 -8.30604,-30.21533 -4.5174,-5.56976 -13.90046,-11.92539 -15.39681,-10.42904 -0.6911,0.6911 -0.93174,5.12951 -0.67312,12.41489 0.45137,12.71504 2.04455,17.60345 7.92465,24.31538 3.83358,4.3759 11.41086,9.52386 14.01816,9.52386 1.35386,0 1.88537,-1.22542 2.43316,-5.60976 z m 565.23797,1.66389 c 10.78726,-6.97214 14.54841,-15.10586 14.49407,-31.34434 -0.0199,-5.93462 -0.33578,-11.08988 -0.70204,-11.45615 -1.1411,-1.1411 -7.75568,3.02249 -13.10075,8.24636 -2.8138,2.75 -6.4368,7.7 -8.05112,11 -2.59137,5.29732 -2.9331,7.05401 -2.91797,15 0.0185,9.70712 0.6433,12.5 2.79644,12.5 0.75699,0 4.12361,-1.77564 7.48137,-3.94587 z m -546.17494,-0.51166 c 6.7235,-3.03712 12.34503,-8.22491 15.80886,-14.58911 2.92232,-5.36927 5.53885,-13.75393 5.55926,-17.81465 0.0109,-2.17882 -0.27155,-2.30812 -3.6558,-1.67323 -11.17037,2.09557 -21.01337,8.21254 -26.09731,16.21827 -3.31645,5.22243 -6.23502,13.93427 -6.23502,18.6113 0,2.92747 0.007,2.93097 4.75,2.24612 2.6125,-0.37725 7.054,-1.72667 9.87001,-2.9987 z m 531.37999,0.0629 c 0,-10.49351 -6.83085,-22.07981 -16.78224,-28.46561 -4.83616,-3.10335 -17.55906,-7.13177 -18.75309,-5.93774 -1.10117,1.10118 1.47295,11.15868 4.48726,17.53244 5.7959,12.25544 13.76565,17.55525 30.29807,20.14795 0.4125,0.0647 0.75,-1.40998 0.75,-3.27704 z m -534.3155,-32.98425 c 6.99211,-7.94346 9.00802,-18.70286 5.8069,-30.9928 -2.87174,-11.02535 -2.89762,-11.03378 -10.09492,-3.28602 -7.75458,8.34764 -10.71156,15.21994 -10.60964,24.65773 0.0677,6.26835 2.05676,13.90169 4.33903,16.65166 1.39128,1.6764 5.02311,-0.74189 10.55863,-7.03057 z m 536.79495,0.44678 c 2.43127,-8.02992 1.71759,-16.77211 -1.96199,-24.03341 -2.506,-4.94535 -12.82334,-17.03446 -14.5379,-17.03446 -1.50716,0 -4.3338,12.83374 -4.40502,20 -0.082,8.24895 1.12541,12.14809 5.83107,18.83086 3.86665,5.49124 10.48731,10.5029 12.10322,9.16181 0.642,-0.53281 1.97878,-3.64897 2.97062,-6.9248 z m 8.0404,-121.56787 c 1.35866,-6.6 2.96102,-17.175 3.56079,-23.5 1.67267,-17.63928 0.66528,-16 9.83246,-16 11.25952,0 26.71901,1.71295 40.55423,4.49352 6.58203,1.32283 12.07621,2.29627 12.20929,2.16319 0.51393,-0.51392 -12.60839,-20.69891 -19.62446,-30.18672 -14.4229,-19.50401 -33.87046,-39.84905 -52.55216,-54.97736 -3.3,-2.67232 -5.87506,-5.26371 -5.72235,-5.75865 0.15271,-0.49494 4.99021,-7.59291 10.75,-15.77325 5.75979,-8.18035 10.47235,-15.31672 10.47235,-15.8586 0,-1.26586 -8.63191,-7.86008 -22.30458,-17.03925 -41.76537,-28.03926 -90.83966,-49.83822 -143.19542,-63.60787 -89.66,-23.58072 -191.67202,-21.04743 -281.82646,6.99867 -46.82607,14.5671 -93.7144,38.27264 -132.41051,66.94338 -4.53034,3.35662 -8.24284,6.47485 -8.25,6.92941 -0.007,0.45456 4.9916,7.80886 11.10836,16.3429 9.27016,12.93359 10.89312,15.72771 9.75,16.78574 -0.75426,0.69814 -7.52337,6.735 -15.04245,13.41525 -21.85428,19.41621 -44.65954,46.97098 -58.28598,70.42481 -3.08633,5.31219 -2.97737,6.20069 0.59387,4.84291 6.28337,-2.38894 33.52481,-5.86833 48.86064,-6.2407 l 8.49748,-0.20633 1.26212,13.32622 c 1.47738,15.59903 5.10536,34.35714 9.02406,46.658 l 2.77981,8.72584 6.36816,-9.45055 c 19.12132,-28.37667 39.49076,-48.88338 67.48196,-67.93671 8.75316,-5.95818 24.58894,-20.12996 24.58894,-22.00516 0,-0.3084 -3.6095,-5.92346 -8.0211,-12.4779 -6.43757,-9.56446 -7.77016,-12.15936 -6.75,-13.14397 2.4076,-2.32371 28.29542,-15.26099 40.6897,-20.33442 31.25133,-12.79231 68.45662,-22.26408 102.08139,-25.98801 74.83506,-8.28794 147.13879,2.57058 211.60009,31.77795 13.74205,6.22651 30.39992,15.31542 30.39992,16.58688 0,0.5221 -3.44712,6.01723 -7.66028,12.21141 l -7.66027,11.26215 3.7564,4.29861 c 5.66933,6.48766 9.91903,10.07585 23.06415,19.474 28.43687,20.33103 52.41589,44.9099 67.5,69.18856 l 4.5,7.24299 2.77478,-8.80347 c 1.52612,-4.84191 3.88641,-14.20347 5.24507,-20.80347 z m -559.88636,11.25 c -3.8249,-13.31239 -7.26939,-35.25948 -7.88649,-50.25 l -0.247,-6 -13,0.30611 c -7.15,0.16835 -17.725,0.99234 -23.5,1.83107 -5.775,0.83874 -12.50979,1.78298 -14.96619,2.09832 l -4.46619,0.57334 1.84417,-2.90442 c 3.64295,-5.73737 14.08786,-20.04685 20.0033,-27.40442 13.14551,-16.35026 47.74008,-49.39954 49.54673,-47.33355 0.4009,0.45845 8.94794,12.20668 18.99342,26.10717 10.04548,13.90049 19.08549,25.71299 20.0889,26.25 2.80928,1.50348 11.56181,1.16628 24.07633,-0.92757 6.25874,-1.04718 13.39747,-2.19436 15.86384,-2.54929 l 4.48431,-0.64533 -2.98431,3.15363 c -1.64137,1.7345 -7.48431,6.33985 -12.98431,10.2341 -31.08193,22.00744 -50.92359,41.13812 -67.42652,65.01046 -2.9278,4.23521 -5.46014,7.70038 -5.62742,7.70038 -0.16728,0 -0.98293,-2.3625 -1.81257,-5.25 z m 543.05285,-4.24701 c -15.98882,-21.81328 -35.76569,-40.89222 -61.18634,-59.02705 -7.15,-5.10074 -14.8,-10.87576 -17,-12.83338 l -4,-3.55931 3.5,-0.0386 c 1.925,-0.0212 8.19329,0.87261 13.92954,1.98631 5.73625,1.11369 13.70436,2.30172 17.70691,2.64006 7.27366,0.61485 7.27906,0.61344 10.61565,-2.77793 1.83606,-1.8662 10.92663,-14.19309 20.20127,-27.39309 9.27464,-13.2 17.00536,-24.17605 17.17937,-24.39123 1.39841,-1.7292 34.04039,28.92751 46.11806,43.31318 9.15503,10.90453 21.72199,27.65785 23.88671,31.84397 l 1.564,3.02445 -3.85075,-0.57546 c -18.17781,-2.71651 -26.65151,-3.66815 -37.98588,-4.26601 l -13.13512,-0.69286 -0.69895,8.37198 c -1.59562,19.11251 -7.21017,50.82534 -9.38708,53.02136 -0.35405,0.35715 -3.70988,-3.53372 -7.45739,-8.64639 z m -49.18634,-76.22106 c -2.2,-0.21002 -9.12079,-1.25937 -15.37953,-2.33189 -6.25874,-1.07252 -12.44624,-1.95004 -13.75,-1.95004 -1.30376,0 -2.37047,-0.49398 -2.37047,-1.09774 0,-2.22763 11.15197,-16.92629 12.32695,-16.24732 4.63483,2.67827 19.35608,13.19414 23.16883,16.55026 3.4437,3.03127 4.30399,4.30599 3.32497,4.92675 -0.72641,0.46058 -1.77075,0.76867 -2.32075,0.68463 -0.55,-0.084 -2.8,-0.32462 -5,-0.53465 z m -444.5,-1.07372 c 0,-2.0601 13.11392,-12.86493 23.70047,-19.52731 l 4.20047,-2.64346 6.01931,8.73128 6.01931,8.73128 -2.71978,0.686 c -1.49588,0.3773 -8.57834,1.6148 -15.73881,2.75 -13.57946,2.15285 -21.48097,2.62081 -21.48097,1.27221 z m -26.00792,-34.00409 c -11.74105,-16.33727 -24.43659,-33.93846 -28.21231,-39.11376 -3.77571,-5.1753 -6.73327,-10.08917 -6.57235,-10.9197 0.36321,-1.87461 22.08067,-16.8632 38.79258,-26.7732 116.68492,-69.19306 273.3631,-84.44094 408,-39.70646 26.05431,8.65681 54.04284,20.73203 75.42241,32.53985 19.85493,10.96576 51.57759,31.86416 51.57759,33.97852 0,0.48834 -2.8125,4.83285 -6.25,9.65448 -3.4375,4.82162 -15.925,22.55439 -27.75,39.40616 -11.825,16.85176 -21.87788,30.65992 -22.33974,30.68478 -0.46186,0.0249 -3.38686,-2.22921 -6.5,-5.00906 -14.50353,-12.95082 -41.24253,-28.59838 -69.27128,-40.53732 -48.95189,-20.85121 -98.59083,-30.59729 -155.35478,-30.50227 -48.59893,0.0813 -88.48419,6.34191 -130.0342,20.4107 -36.65246,12.41048 -75.3958,33.20328 -93.73096,50.3036 -2.34797,2.18984 -4.75516,4.27543 -5.34931,4.63465 -0.63495,0.38388 -9.88037,-11.59191 -22.42765,-29.051 z m 76.31595,-26.07463 c 14.13272,-6.67969 19.50634,-11.0068 23.30128,-18.76339 8.96156,-18.31676 -4.67471,-41.3661 -24.47269,-41.3661 -7.01418,0 -10.76346,1.21872 -26.81958,8.71781 -11.25812,5.25816 -14.94134,8.23713 -8.41111,6.80285 1.90363,-0.41811 3.20038,-0.0607 4.33722,1.19553 1.60581,1.7744 16.19342,33.21777 18.85056,40.63207 1.33435,3.72331 1.29028,3.9247 -1.35729,6.20204 -6.30544,5.42371 -2.00582,4.41434 14.57161,-3.42081 z m -3.61574,-6.2646 c -1.40964,-2.21598 -4.67891,-9.30282 -14.58509,-31.61626 -2.25896,-5.08825 -4.1072,-10.06108 -4.1072,-11.05073 0,-2.68236 7.97879,-6.1979 14.06659,-6.1979 6.24703,0 11.36129,2.51745 16.3643,8.05518 5.25589,5.81765 7.80716,12.11126 8.35786,20.61767 0.3843,5.93623 0.0917,7.94271 -1.69736,11.63837 -2.47265,5.1078 -8.14076,9.49798 -13.35527,10.34418 -2.97294,0.48244 -3.78025,0.19585 -5.04383,-1.79051 z m 369.05084,5.0991 c 3.4044,-5.65906 3.93827,-7.14902 2.72797,-7.61345 -0.91781,-0.3522 -2.34384,0.48925 -3.65584,2.15719 -3.19068,4.05629 -8.03048,5.7893 -12.60183,4.5124 -5.72454,-1.59901 -13.75637,-6.44029 -13.40635,-8.08083 0.1689,-0.79162 4.63534,-10.81654 9.92542,-22.27761 l 9.61833,-20.8383 3.82458,0.36473 c 4.59975,0.43865 5.32385,-1.76163 1.07459,-3.26528 -1.5125,-0.53522 -6.10205,-2.50802 -10.19899,-4.38401 -4.09695,-1.87599 -7.84635,-3.16532 -8.332,-2.86517 -0.48565,0.30015 0.33273,1.81468 1.81863,3.36563 l 2.70164,2.8199 -7.64729,16.8204 c -4.20601,9.25123 -8.88809,19.07041 -10.40464,21.82041 -2.61416,4.74035 -2.95424,4.98811 -6.54866,4.77106 -2.47232,-0.14929 -3.65931,0.16708 -3.41188,0.90938 0.2087,0.62608 7.55554,4.35773 16.32632,8.29255 8.77078,3.93482 17.29687,7.89508 18.94687,8.80058 1.65,0.90549 3.45233,1.66437 4.00518,1.68639 0.55285,0.022 2.90993,-3.12617 5.23795,-6.99597 z m -46.74313,-13.49537 c 0,-0.84227 -0.6338,-1.7746 -1.40844,-2.07186 -3.14146,-1.20549 -3.77189,-6.24703 -6.20112,-49.59061 -0.478,-8.52869 -1.02749,-11.83663 -2.03012,-12.22138 -0.89512,-0.34349 -6.96836,6.52714 -17.40824,19.69385 -21.75637,27.43903 -21.09,26.72138 -24.81211,26.72138 -6.00269,0 -3.4664,2.59677 4.73032,4.84311 9.28433,2.54441 9.12971,2.53057 9.12971,0.81741 0,-0.73672 -1.125,-1.85207 -2.5,-2.47857 -1.375,-0.62649 -2.5,-1.52157 -2.5,-1.98907 0,-1.43637 6.22826,-10.34324 7.60103,-10.87002 0.71091,-0.27281 5.47901,0.79437 10.59577,2.3715 l 9.3032,2.8675 v 6.96907 6.96907 l -3.3107,0.31789 c -5.46018,0.52427 -3.15625,2.32005 7.36486,5.74047 11.97364,3.89264 11.44584,3.80456 11.44584,1.91026 z m -25.23355,-28.17729 c -6.89682,-2.2297 -7.60009,-2.68284 -6.5,-4.18818 0.67845,-0.92838 4.15855,-5.43803 7.73355,-10.02144 l 6.5,-8.33348 0.62579,6.87589 c 0.92212,10.13184 0.97826,18.39034 0.12421,18.27165 -0.4125,-0.0573 -4.2301,-1.22932 -8.48355,-2.60444 z M 381.82317,233.1364 c 0.43757,-1.14029 2.32172,-1.50527 7.85699,-1.52196 8.85004,-0.0267 14.14447,-2.16884 18.53997,-7.50135 5.61418,-6.81097 5.17183,-16.83311 -0.97112,-22.00206 -3.96422,-3.33567 -5.70715,-3.99597 -16.00544,-6.06354 -9.11255,-1.82951 -15.19813,-4.44708 -16.1587,-6.95028 -0.34283,-0.89341 -0.62333,-3.18407 -0.62333,-5.09035 0,-5.21626 3.8676,-8.37046 10.26367,-8.37046 4.43776,0 5.36167,0.40405 8.60398,3.76278 1.99779,2.06953 4.14824,4.65703 4.77878,5.75 0.77065,1.33585 1.48302,1.65944 2.17332,0.98722 0.70063,-0.68229 0.3653,-3.46227 -1.05546,-8.75 -1.99631,-7.42979 -3.83189,-9.62219 -5.1595,-6.16247 -0.47676,1.2424 -1.4538,1.44483 -4.49437,0.93113 -7.6124,-1.28611 -17.36207,3.19973 -20.61147,9.48337 -2.04574,3.95602 -1.88369,10.80613 0.35515,15.01357 2.44189,4.58902 7.99077,7.61148 16.62014,9.05293 3.86417,0.64547 8.72168,1.84634 10.79448,2.6686 14.21092,5.63733 6.97336,23.3904 -7.84444,19.24167 -4.20648,-1.17774 -12.42428,-8.40392 -12.42428,-10.92507 0,-0.54503 -0.64039,-0.74522 -1.42309,-0.44487 -1.21819,0.46746 -1.2284,1.21888 -0.0709,5.21862 0.74369,2.56988 1.85142,6.58502 2.46164,8.92252 1.1071,4.24088 3.29618,5.61092 4.39402,2.75 z m 213.63837,-11.94546 c 0,-0.79499 -1.2375,-2.04659 -2.75,-2.78134 -2.41509,-1.17321 -2.73947,-1.88012 -2.66357,-5.80457 0.0475,-2.45776 0.64668,-7.07905 1.33145,-10.26952 1.10618,-5.15389 2.31528,-7.04988 10.84116,-17 10.19832,-11.90191 11.31787,-12.90893 15.24096,-13.70896 1.375,-0.2804 2.5,-1.15028 2.5,-1.93306 0,-0.98876 -2.22978,-1.79895 -7.30406,-2.65394 -4.01723,-0.67688 -7.95473,-1.48038 -8.75,-1.78555 -2.43527,-0.9345 -1.60655,1.67918 1.25619,3.96184 l 2.70213,2.15461 -1.88493,2.88296 c -2.08087,3.18266 -14.50561,18.38296 -15.02624,18.38296 -0.83609,0 -8.56637,-25.07241 -8.00856,-25.97498 0.34843,-0.56376 1.73195,-1.02502 3.07449,-1.02502 3.71516,0 3.05316,-2.81045 -0.80902,-3.43458 -1.7875,-0.28886 -6.85,-1.16778 -11.25,-1.95316 -5.49603,-0.98101 -8.313,-1.10468 -9,-0.39511 -0.67149,0.69355 -0.5259,1.20457 0.44318,1.55558 3.44248,1.24688 5.92954,5.5336 10.28499,17.72727 6.1843,17.31375 6.22205,17.52195 4.74398,26.16279 -1.39152,8.13494 -2.78559,10.33721 -6.54358,10.33721 -1.40241,0 -2.42857,0.5852 -2.42857,1.38496 0,0.9609 2.37295,1.74057 7.75,2.54638 4.2625,0.63878 9.325,1.54449 11.25,2.01268 4.97408,1.20978 5,1.20776 5,-0.38945 z M 463.71153,217.0195 c 3.98985,-0.40211 5.75,-1.00862 5.75,-1.98132 0,-0.77099 -0.92958,-1.40181 -2.06574,-1.40181 -4.33067,0 -5.76286,-1.73692 -6.38737,-7.74644 -0.32886,-3.16446 -0.82694,-7.89106 -1.10685,-10.50356 l -0.50893,-4.75 h 3.39959 c 4.89126,0 7.45346,2.50749 14.18872,13.88576 l 5.98059,10.10336 4.5,-0.006 c 5.90478,-0.007 12,-1.04189 12,-2.03685 0,-0.43538 -1.54234,-1.30062 -3.42743,-1.92276 -2.67686,-0.88344 -4.76078,-3.07791 -9.51619,-10.02099 -3.34882,-4.8894 -7.45023,-9.85927 -9.11423,-11.04414 l -3.02545,-2.15432 4.3637,-2.76738 c 7.029,-4.45765 9.41062,-11.67129 6.13345,-18.57743 -3.55511,-7.49182 -9.53066,-8.92535 -29.02465,-6.96298 -8.18906,0.82436 -15.22671,1.49983 -15.63921,1.50106 -0.4125,0.001 -0.75,0.67723 -0.75,1.50223 0,0.92157 0.93651,1.5 2.42857,1.5 2.98938,0 5.54843,2.41442 5.64021,5.32143 0.0378,1.19821 0.87174,10.95357 1.85313,21.67857 1.92823,21.07244 1.58922,24.21051 -2.68128,24.81955 -1.23234,0.17575 -2.24063,1.01568 -2.24063,1.8665 0,1.61355 0.27754,1.60918 19.25,-0.30292 z m -4.6003,-32.13313 c -0.26679,-0.9625 -0.78128,-6.3357 -1.14331,-11.94044 l -0.65823,-10.19045 3.51074,-0.65862 c 4.54579,-0.85279 10.07785,1.00799 12.62546,4.24676 2.47116,3.14157 2.68768,10.09249 0.44922,14.42119 -2.6117,5.05047 -13.67172,8.13387 -14.78388,4.12156 z m 80.35031,28.67146 c 5.87268,-2.65525 10.55876,-7.2239 13.76645,-13.42146 3.67381,-7.09814 4.36139,-20.1619 1.4121,-26.82925 -4.75853,-10.75746 -12.59403,-16.54678 -23.54222,-17.39436 -11.56956,-0.89568 -21.58941,4.97241 -27.382,16.03618 -2.36689,4.52071 -2.71842,6.35252 -2.73514,14.25243 -0.0172,8.13213 0.29185,9.67575 3.0033,15 3.17753,6.23942 9.39534,11.47749 15.84222,13.34594 5.70055,1.65215 14.80779,1.19321 19.63529,-0.98948 z m -15.3807,-1.91093 c -14.45624,-4.55397 -16.9994,-38.09847 -3.73462,-49.26004 7.22655,-6.08074 16.61027,-3.69709 21.71546,5.51617 2.72832,4.92377 2.89986,5.9136 2.89986,16.73334 0,10.78771 -0.18582,11.86886 -3,17.45532 -1.65,3.27543 -4.13555,6.77467 -5.52345,7.77611 -3.07918,2.22177 -8.48254,2.9997 -12.35725,1.7791 z"
       id="path408" />
  </g>
</svg>
