<?xml version="1.0" encoding="UTF-8" standalone="no"?>
<!-- Created with Inkscape (http://www.inkscape.org/) -->

<svg
   version="1.1"
   id="svg103"
   width="1024"
   height="1024"
   viewBox="0 0 1024 1024"
   sodipodi:docname="logo.png"
   inkscape:version="1.2.2 (b0a8486541, 2022-12-01)"
   inkscape:dataloss="true"
   inkscape:export-filename="logo.png1.png"
   inkscape:export-xdpi="96"
   inkscape:export-ydpi="96"
   xmlns:inkscape="http://www.inkscape.org/namespaces/inkscape"
   xmlns:sodipodi="http://sodipodi.sourceforge.net/DTD/sodipodi-0.dtd"
   xmlns="http://www.w3.org/2000/svg"
   xmlns:svg="http://www.w3.org/2000/svg">
  <defs
     id="defs107" />
  <sodipodi:namedview
     id="namedview105"
     pagecolor="#ffffff"
     bordercolor="#cccccc"
     borderopacity="1"
     inkscape:showpageshadow="0"
     inkscape:pageopacity="1"
     inkscape:pagecheckerboard="0"
     inkscape:deskcolor="#d1d1d1"
     showgrid="false"
     inkscape:zoom="0.54394531"
     inkscape:cx="202.22621"
     inkscape:cy="511.08079"
     inkscape:window-width="1536"
     inkscape:window-height="827"
     inkscape:window-x="0"
     inkscape:window-y="0"
     inkscape:window-maximized="1"
     inkscape:current-layer="g109" />
  <g
     inkscape:groupmode="layer"
     inkscape:label="Image"
     id="g109">
    <path
       style="fill:#1b2c53;stroke:none"
       d="m 505.75225,7.4333748 c -15.537,2.0401 -31.378,1.803 -47,3.8572002 -29.177,3.8367 -57.983,10.8331 -86,19.747002 -114.475,36.420397 -211.91,121.982393 -268.6914,226.971393 -24.202804,44.751 -40.148404,93.881 -48.388804,144 -31.6509,192.504 62.505204,389.562 232.080204,486.573 43.167,24.694 90.316,42.344 139,52.42399 50.439,10.443 103.95,12.434 155,5.721 56.773,-7.465 112.562,-24.74799 163,-52.02699 148.85399,-80.504 244.846,-236.723 248.985,-405.691 5.205,-212.468 -139.97301,-406.314996 -343.985,-464.140395 -33.984,-9.6324 -68.738,-15.3549002 -104,-16.8990002 -13.167,-0.5765 -26.819,-2.2669 -40,-0.5362 M 792.75224,245.00897 c 8.354,4.264 15.023,11.572 22,17.714 22.099,19.457 44.428,45.389 57,72.286 -15.07,-2.029 -29.691,-6.29 -45,-6.961 -3.925,-0.172 -12.255,-1.503 -15.258,1.564 -3.49,3.566 -2.384,14.58 -2.908,19.397 -1.492,13.733 -3.405,35.732 -11.834,47 -17.924,-26.569 -38.20599,-50.281 -63.99999,-69.625 -8.605,-6.453 -31.583,-17.395 -32.978,-29.375 -0.795,-6.825 11.003,-18.843 14.978,-24 -23.959,-10.324 -45.87,-23.627 -71,-31.656 -74.265,-23.728 -155.885,-25.648 -231,-4.768 -20.873,5.802 -41.586,12.97 -61,22.671 -6.64,3.318 -15.121,6.397 -20.747,11.301 -7.365,6.419 16.184,20.291 10.284,29.451 -12.023,18.665 -38.336,29.999 -54.537,45.09 -10.284,9.58 -19.538,20.584 -27.845,31.911 -4.575,6.239 -8.235,13.976 -14.155,19 l -8.916,-36 -4.084,-33 -28,2.17 -32,5.83 c 7.069,-24.031 32.501,-49.909 50,-66.985 6.068,-5.922 12.672,-11.324 19,-16.965 2.042,-1.82 5.783,-4.101 6.118,-7.089 0.391,-3.487 -3.834,-7.365 -5.691,-9.961 -4.96,-6.939 -12.453,-14.601 -14.427,-23 25.335,-16.742 49.167,-34.911 77,-47.691 107.593,-49.404 229.053,-61.209 344,-32.436 45.287,11.337 89.06,29.633 128.99999,53.728 9.539,5.755 18.985,12.003 28,18.551 2.897,2.105 8.453,5.004 9.118,8.887 0.606,3.541 -3.255,7.305 -5.093,9.961 -5.318,7.683 -10.77,15.274 -16.025,23 m -502.99999,48 c 10.506,-6.571 19.479,-15.535 30,-22.308 19.564,-12.595 41.179,-22.638 63,-30.639 98.042,-35.947 213.84,-31.355 308,14.205 22.552,10.912 40.781,25.513 61,39.742 13.527,-19.885 27.68999,-39.364 41.57599,-59 3.208,-4.538 14.576,-16.176 13.542,-21.826 -1.19,-6.503 -16.896,-13.807 -22.118,-17.121 -23.56499,-14.954 -48.05699,-28.267 -73.99999,-38.653 -108.508,-43.44 -234.646,-49.152 -346,-12.399 -35.444,11.698 -69.29,26.824 -101,46.575 -7.496,4.67 -14.814,9.581 -22,14.715 -2.362,1.687 -6.501,3.765 -7.169,6.883 -1.253,5.846 9.68,16.34 12.878,20.826 14.035,19.687 28.694,39.011 42.291,59 m 242,-152.674 c 36.256,-6.041 44.516,52.694 10,59.206 -38.52,7.268 -46.777,-53.079 -10,-59.206 m -50,30.674 24,27 c -4.348,0.549 -11.434,2.63 -15.39,-0.028 -10.101,-6.787 -8.465,-22.606 -23.61,-22.972 1.077,8.52 -1.104,21.759 10,23 v 3 l -25,2 c 1.6,-2.672 5.125,-4.081 6.088,-7.108 1.234,-3.878 -0.142,-9.919 -0.664,-13.892 -1.262,-9.611 2.385,-32.56 -10.424,-34 v -3 c 11.581,-0.497 26.965,-5.767 37.999,-1.005 13.827,5.966 9.533,23.001 -2.999,27.005 m 52,-27.452 c -16.252,3.525 -17.328,29.126 -12.532,41.452 2.831,7.277 9.159,13.396 17.532,11.463 20.964,-4.84 19.532,-58.236 -5,-52.915 m 62,3.452 -6,3 8,27 c 8.028,-8.389 17.677,-15.866 12,-27 l 18,3 v 2 c -13.558,4.75 -33.579,26.978 -30.593,42.982 0.623,3.334 3.967,5.226 5.593,8.018 l -24,-3 v -3 c 7.888,-0.6 8.544,-7.272 9.56,-14 1.628,-10.78 -6.779,-34.804 -16.56,-40 v -2 l 1,-1 23,4 m -128.682,-0.257 c -3.796,1.911 -1.986,8.015 -1.603,11.257 0.882,7.476 0.508,16.863 11.242,11.427 12.477,-6.318 3.687,-29.392 -9.639,-22.684 m -62.318,7.257 4,16 -3,1 c -2.544,-4.002 -5.346,-8.485 -10,-10.258 -6.329,-2.411 -14.63,1.808 -13.728,9.254 2.182,17.998 41.449,4.2 37.246,30.004 -0.395,2.421 -1.223,4.899 -2.523,6.985 -1.71,2.743 -4.203,4.891 -6.996,6.482 -6.633,3.778 -15.69,0.112 -20.999,5.533 h -3 l -5,-18 c 5.467,1.666 8.038,7.169 13,9.86 7.921,4.297 22.646,-2.991 16.257,-12.817 -8.816,-13.558 -40.653,-3.806 -34.863,-29.043 3.568,-15.551 19.032,-7.728 26.606,-15 h 3 m 259,70 c -6.234,-1.442 -18.573,-3.393 -22,-9 6.45,-0.492 10.044,-8.132 5.397,-13.57 -5.586,-6.537 -24.367,-8.703 -24.944,3.466 -0.116,2.452 2.775,4.784 3.547,7.104 -4.904,-0.642 -15.476,-1.789 -17,-7 13.332,-0.73 25.499,-24.206 33.211,-34 2.328,-2.957 7.191,-11.733 11.486,-11.654 3.279,0.06 2.896,12.162 3.133,14.654 1.242,13.05 -0.376,27.168 2.564,39.999 0.844,3.683 3.553,6.424 4.606,10.001 m -18,-52 -15,20 17,5 -2,-25 m 65,13 c -12.215,-2.772 -17.579,21.099 -21.781,30 -1.468,3.11 -5.724,8.862 -4.582,12.471 3.686,11.646 21.269,7.587 26.363,0.529 l 4,1 -8,14 -29,-12.421 -12,-7.579 c 12.539,1.178 17.214,-19.618 21.742,-29 1.696,-3.514 4.495,-8.065 4.837,-12 0.268,-3.08 -2.002,-5.577 -3.579,-8 5.928,-0.696 19.973,5.067 22,11 m -383,59 c 1.412,-2.534 4.109,-4.94 4.154,-8.004 0.058,-4.028 -3.17,-8.411 -4.73,-11.996 -4.194,-9.641 -9.002,-31.044 -21.424,-31 2.766,-4.86 9.158,-6.34 14,-8.753 9.844,-4.906 20.855,-9.659 32,-6.192 19.082,5.936 25.191,32.141 12.671,46.93 -3.996,4.721 -9.21,7.567 -14.671,10.259 -6.874,3.388 -14.382,7.614 -22,8.756 m 3,-61.362 c -16.077,4.656 2.798,31.686 7,41.362 2.187,5.036 4.621,10.045 11,8.192 27.407,-7.962 8.911,-57.348 -18,-49.554 m 192,60.362 c 5.473,7.39 9.915,12.723 6,22 10.558,-3.34 21.077,7.623 9.671,15.342 -3.456,2.339 -6.129,-1.383 -9.597,-1.09 -2.016,0.169 -3.061,1.852 -2.747,3.771 3.154,19.293 28.231,11.091 34.673,-0.023 -6.423,1.135 -13.631,-2.115 -9.539,-9.91 2.739,-5.218 10.999,-11.536 16.539,-13.09 2.319,5.653 7.194,11.962 7.862,18 1.094,9.893 -7.043,10.364 -12.862,5 0.477,20.304 21.365,25.134 33,10 -2.556,0.201 -6.249,1.413 -8.682,0.357 -7.879,-3.418 2.638,-25.317 10.682,-10.357 h 1 c 1.332,-11.91 4.547,-13.273 16,-17 l -23,48 c 15.498,3.688 37.477,-0.946 53,-4.001 6.878,-1.353 16.008,-4.948 23,-3.707 10.96,1.946 23.248,16.017 32,22.581 6.245,4.684 16.357,9.986 19.972,17.131 4.023,7.951 0.704,22.435 0.117,30.996 -1.599,23.353 -1.66,46.655 -3.919,70 -3.571,36.898 -6.04,74.901 -15.065,111 -15.406,61.624 -52.41,116.293 -103.105,154.373 -17.011,12.779 -34.988,23.392 -54,32.874 -6.329,3.157 -15.701,9.191 -23,8.497 -8.299,-0.79 -17.654,-6.824 -25,-10.497 -18.672,-9.336 -36.639,-20.013 -53,-33.048 -21.129,-16.834 -40.831,-36.171 -56.573,-58.199 -42.625,-59.645 -55.207,-133.198 -58.466,-205 -1.094,-24.083 -1.85,-49.028 -4.131,-73 -0.696,-7.318 -3.979,-23.329 0.773,-29.536 8.7,-11.363 25.174,-19.646 36.397,-28.464 4.154,-3.264 9.652,-9.169 15,-10.136 7.541,-1.363 18.443,3.433 26,4.701 16.37,2.746 33.421,4.435 50,4.435 l -23,-48 c 10.966,0.896 14.84,4.315 16,15 2.285,-1.885 4.725,-4.819 8.003,-4.418 6.256,0.765 9.063,10.192 4.984,14.775 -1.74,1.955 -6.537,1.163 -8.987,1.643 11.848,14.743 31.145,7.67 32,-11 -5.029,4.646 -14.228,5.916 -13.562,-4 0.433,-6.437 5.776,-12.753 7.562,-19 5.401,1.515 14.25,8.029 16.972,13.09 4.036,7.505 -2.421,11.411 -8.972,9.91 4.329,8.34 13.502,14.353 23,10.867 3.522,-1.294 14.307,-8.352 11.003,-13.361 -1.877,-2.845 -8.459,1.009 -11.003,1.494 -4.532,-8.616 -4.88,-22.669 9,-16 -3.499,-9.088 -1.446,-18.203 8,-23 m -271,6 c -25.841,20.83 -55.529,47.411 -70,78 12.822,-0.265 26.197,-2.951 39,-4.17 4.196,-0.399 11.952,-2.671 15.397,0.773 3.113,3.113 1.815,12.198 2.318,16.397 1.571,13.137 1.365,32.899 9.285,44 14.414,-21.189 31.272,-40.153 51,-56.565 11.74,-9.767 28.098,-16.833 37,-29.435 -11.77,1.489 -30.582,8.671 -41.996,4.258 -5.855,-2.264 -9.359,-9.461 -12.888,-14.258 -9.209,-12.514 -17.664,-28.534 -29.116,-39 m 536.99999,0 c -7.939,13.936 -18.51299,26.957 -27.85999,40 -3.662,5.112 -7.612,12.809 -14.14,14.566 -11.953,3.217 -27.646,-4.532 -40,-4.566 l 44,35.155 44.99999,49.845 c 7.143,-18.66 9.945,-42.101 10,-62 l 55,5 c -10.117,-21.645 -29.327,-40.354 -46,-57 -7.377,-7.366 -16.136,-17.185 -26,-21 m -466.99999,26 c -9.004,6.548 -22.114,12.529 -27,23 l 40,-5 -13,-18 m 386,19 40,4 c -4.286,-6.035 -19.846,-21.004 -27.907,-20.694 -5.356,0.205 -11.048,12.248 -12.093,16.694 m -187,34.688 c -28.947,2.728 -55.328,10.572 -85,9.273 -13.08,-0.573 -26.063,-3.231 -39,-5.092 -4.682,-0.674 -10.265,-2.887 -15,-2.07 -3.774,0.652 -7.054,3.839 -10,6.085 -7.129,5.436 -20.689,12.268 -24.972,20.206 -3.504,6.495 -0.213,16.945 -0.043,23.91 0.548,22.349 1.726,44.743 3.845,67 3.393,35.633 5.734,72.215 14.905,107 13.634,51.717 44.317,98.187 85.265,132.247 15.656,13.023 32.906,24.161 51,33.495 5.713,2.946 14.379,8.667 21,7.886 7.522,-0.887 16.42,-6.612 23,-10.215 16.184,-8.862 31.765,-18.519 46,-30.334 72.865,-60.472 96.893,-147.728 101.039,-239.079 1.046,-23.03 3.924,-45.899 3.961,-69 0.011,-6.676 3.667,-17.902 -0.603,-23.7 -5.425,-7.365 -16.212,-12.878 -23.397,-18.51 -3.221,-2.524 -6.813,-6.268 -11,-6.991 -9.085,-1.568 -21.854,3.448 -31,4.773 -16.983,2.459 -34.844,3.513 -52,2.339 -12.688,-0.869 -25.527,-2.816 -38,-5.311 -6.228,-1.246 -13.641,-4.512 -20,-3.912 m -5,12.312 c 2.164,3.283 7.669,8.775 8.66,12.259 1.207,4.247 -10.664,20.992 5.335,19.094 5.755,-0.683 4.544,-12.193 9.59,-10.601 3.992,1.258 0.363,6.624 0.988,9.139 2.001,8.065 11.34,0.778 13.427,-2.891 h -5 c -0.331,-6.05 0.906,-10.713 8,-9 1.546,-6.4 2.016,-9.471 9,-11 -2.489,9.12 -6.176,17.958 -8.974,27 -1.027,3.316 -1.339,8.711 -4.456,10.821 -6.547,4.433 -23.996,-0.017 -31.57,-0.647 -14.583,-1.215 -29.632,2.971 -44,4.826 l -13,-41 c 6.42,0.724 6.979,4.157 7,10 7.858,0.028 9.972,2.142 10,10 l -4,-1 -1,1 c 0.989,1.363 1.791,2.705 3.138,3.765 13.323,10.489 7.779,-10.076 12.952,-10.728 4.929,-0.621 2.797,8.482 6.983,10.217 5.534,2.292 13.335,-3.183 12.679,-9.254 -0.389,-3.591 -3.463,-6.484 -5.752,-9 v -1 l 10,-12 m 95,53 -16,2 c 21.821,9.403 36.617,18.59 43,43 -15.03,-9.391 -27.084,-19.292 -45,-23 v 1 c 32.729,9.428 65.496,49.49 55,85 -9.831,-15.546 -15.416,-29.628 -32,-40 5.612,8.061 12.199,15.162 16.741,24 13.756,26.77 7.426,52.035 -8.741,76 h -1 c 0.415,-20.1 -3.523,-34.841 -9,-54 h -1 c 4.526,21.93 9.043,54.019 -5.133,73.826 -7.822,10.93 -27.386,17.433 -38.867,24.024 -21.794,12.512 -42.699,28.515 -56,50.15 h -1 c 3.61,-36.021 40.062,-58.406 61.714,-83 26.024,-29.558 40.323,-66.008 28.565,-105 -3.373,-11.183 -10.19,-19.77 -15.279,-30 h -1 c 17.561,37.622 19.542,77.236 -4.746,113 -13.347,19.653 -32.315,33.565 -48.084,51 -20.258,22.398 -34.167,50.326 -34.17,81 -7.972,-5.987 -10.03,-26.605 -11.155,-36 -3,-25.057 4.859,-49.252 23.159,-66.961 20.754,-20.082 47.245,-30.814 58.996,-59.039 h -1 c -11.578,24.764 -38.296,33.836 -58,50.439 -31.641,26.661 -35.766,60.624 -25,98.561 -37.024,-21.404 -33.601,-68.837 -12,-99 -15.084,10.849 -24.217,31.765 -25,50 h -1 c -3.694,-8.885 -8.116,-18.087 -7.871,-28 0.574,-23.247 25.249,-39.828 44.871,-48 l -5,8 c 13.851,-1.208 24.876,-9.266 37,-15 l -3,13 c 15.267,-6.356 25.941,-15.343 37.439,-26.832 13.783,-13.772 23.561,-23.254 23.561,-44.168 l 3,3 h 1 c 2.741,-9.754 4.093,-19.469 -0.324,-29 -2.103,-4.537 -7.97,-9.172 -8.683,-14 -0.697,-4.724 4.399,-11.536 5.928,-16 5.514,-16.095 3,-38.088 -17.921,-39 6.047,-21.236 44.001,-2.759 53,9 m -69,-4 v 1 c -9.268,4.85 -16.919,2.598 -27,3.039 -12.06,0.528 -24.168,2.666 -36,4.961 l -1,-6 c 20.317,-3.94 43.435,-6.818 64,-3 m 22,47 -23,-8 v 1 c 18.105,7.578 34.942,21.015 35,42 l -13,-9 c 6.612,16.122 5.598,28.133 -1,44 h -1 c -1.846,-9.798 -4.177,-18.399 -11,-26 5.906,22.826 -1.065,50.054 -26,58 l 4,-30 h -1 c -4.305,18.6 -17.841,29.343 -35,36 l 8,-23 h -1 c -3.968,13.483 -17.457,21.892 -31,23 l 2,-12 c 11.749,-2.792 15.557,-11.826 17,-23 h -1 c -6.385,22.122 -38.326,13.067 -41,39 l -13,-9 2,9 c -11.853,-4.605 -20.625,-28.56 -5,-34 -4.704,-8.923 -28.262,-18.852 -22.642,-30.957 2.788,-6.003 10.654,-6.787 13.642,-13.043 -7.043,5.622 -12.491,3.254 -17,12 -16.164,-17.279 14.671,-30.104 27,-38.72 4.139,-2.893 10.37,-6.002 12.987,-10.454 1.998,-3.399 0.951,-7.821 4.327,-10.474 8.501,-6.681 23.664,-17.512 33.686,-21.092 14.525,-5.188 32.81,-4.26 48,-4.26 v 1 l -23,19 c 11.273,3.317 18.094,13.029 26,21 -3.724,-8.642 -9.26,-16.547 -17,-22 v -2 c 11.994,-8.883 30.908,-25.496 46.999,-23.887 20.924,2.091 7.157,36.216 2.001,45.887 m -30,-24 v 1 c 5.998,-2.497 19.32,-12.825 25.852,-9.799 9.61,4.453 -3.423,21.603 -5.852,26.799 6.871,-3.882 20.74,-27.066 6.956,-31.084 -8.384,-2.444 -20.774,8.656 -26.956,13.084 m -74,31 c -5.271,2.48 -7.802,6.757 -10,12 l 14,-5 c 4.085,-4.953 16.639,-12.292 23,-13 -4.528,-5.949 -18.139,-2.367 -25,-4 l 8,-13 c -13.993,4.039 -14.799,10.979 -10,23 m 321.99999,4 c 13.991,13.992 22.782,30.036 12,49 -15.721,-7.832 -25.81699,-34.703 -12,-49 m -517.99999,1 c 5.985,18.398 5.748,37.163 -13,48 -9.119,-14.5 -6.334,-42.573 13,-48 m 262,3 c 0,24.675 -11.243,37.25 -32,50 0.014,-5.148 -1.23,-14.465 1.032,-18.985 5.07,-10.133 16.068,-13.339 17.968,-26.015 h -1 c -8.328,13.544 -17.931,20.998 -34,21 v 1 c 13.609,5.706 14.031,16.917 13,30 18.522,-6.781 51.941,-34.233 35,-57 m -282,74 c -20.923,-2.155 -28.098,-29.753 -23,-47 22.178,7.067 23.828,27.726 23,47 m 579.99999,-47 c 0.119,14.332 2.626,30.005 -10.04,40.482 -2.435,2.014 -8.924,7.525 -12.36,5.385 -3.271,-2.037 -2.704,-10.588 -2.561,-13.867 0.601,-13.71 11.248,-28.853 24.961,-32 m -538.99999,8 c -0.431,20.747 -15.031,37.097 -36,38 0.173,-20.935 15.236,-36.304 36,-38 m 509.99999,38 c -20.907,-4.991 -34.15099,-14.774 -35.99999,-38 21.22999,0.926 35.94199,17.133 35.99999,38 m -347.99999,-25.536 c -7.755,1.396 -26.865,10.237 -9.995,16.794 6.401,2.488 16.462,0.819 22.995,-0.523 8.214,-1.688 9.945,-8.964 2.956,-14.082 -4.439,-3.251 -10.756,-3.124 -15.956,-2.189 m -199.333,15.203 -0.334,0.666 0.334,-0.666 m 550.33299,2.333 c 0.612,29.661 1.975,56.757 -5.735,86 -19.07,72.339 -71.53499,133.296 -139.26499,164.309 -17.746,8.125 -38.326,17.084 -58,18.691 v 1 c 27.766,-2.194 52.512,2.2 68,29 -32.14,7.368 -63.771,11.108 -81,-24 l 13,-4 v -1 l -59,10 v 1 c 9.565,2.756 22.295,10.12 28.427,18.09 3.356,4.361 3.195,13.89 -4.428,13.364 -5.141,-0.355 -8.524,-6.965 -11.463,-10.439 -5.484,-6.485 -17.411,-16.957 -26.536,-16.956 -9.623,0 -20.911,11.481 -26.91,17.941 -2.815,3.032 -5.681,8.7 -10.129,9.458 -8.011,1.365 -8.778,-8.666 -5.308,-13.369 6.102,-8.271 18.067,-14.225 27.347,-18.089 v -1 l -52,-9 v 1 l 7,2 c -1.032,5.716 -4.35,10.684 -8.184,14.996 -20.161,22.671 -46.302,15.284 -71.816,10.004 9.127,-23.559 36.709,-31 59,-31 v -1 c -20.639,-2.779 -41.545,-12.526 -60,-21.753 -67.439,-33.72 -117.65,-99.078 -132.196,-173.247 -4.597,-23.443 -3.82,-46.33 -2.804,-70 h 1 c -0.007,10.356 -1.623,20.589 -0.91,31 3.415,49.881 21.947,101.908 54.91,140 -9.404,-24.246 -8.328,-61.638 21,-73 9.343,27.617 12.355,61.036 -20,75 l 38,38 c -15.256,-24.722 -22.323,-60.245 4,-82 14.833,21.987 30.569,66.344 -3,82 13.462,12.363 31.139,22.98 48,30 v -1 c -28.096,-14.344 -29.196,-54.216 -16,-79 25.203,17.753 40.81,55.459 19,82 19.366,7.943 40.099,16.301 61,19 v -1 c -35.376,-4.768 -46,-36.985 -46,-68 22.745,3.914 44.315,22.407 49.5,45 1.415,6.166 3.876,19.327 -1.5,24 v 1 l 66,9.819 70,-9.819 v -1 c -7.643,-2.537 -3.809,-19.848 -2.346,-26 5.003,-21.031 26.036,-38.808 47.346,-42 7.08,29.74 -13.53,64.43 -45,67 v 1 l 60,-18 c -2.684,-9.317 -7.834,-17.047 -8.829,-27 -1.992,-19.918 11.223,-47.324 29.829,-56 8.892,26.285 14.184,64.162 -17,79 v 1 l 49,-29 v -1 c -7.666,-2.152 -12.628,-10.119 -15.88,-17 -10.354,-21.913 -1.325,-46.509 11.88,-65 h 1 c 20.922,26.382 21.264,53 4,81 l 37,-37 c -33.81,-14.778 -26.501,-47.901 -20,-76 28.146,14.601 31.73,47.84 21,74 28.401,-31.114 46.63499,-76.638 52.72799,-118 1.822,-12.367 2.273,-24.518 2.272,-37 0,-5.563 -2.129,-12.878 0,-18 m -554.99999,49 c -24.307,-1.113 -32.986,-26.456 -33,-47 23.977,2.456 33,26.384 33,47 m 590.99999,-47 c -0.002,20.845 -7.502,44.848 -32,47 0,-23.417 7.527,-40.306 32,-47 m -549.99999,1 c -0.014,21.166 -11.507,42.5 -35,43 0,-23.352 12.097,-37.701 35,-43 m 476,0 c 15.11899,3.466 28.87299,11.293 33.55999,27 0.974,3.263 4.115,12.384 0.833,14.968 -3.707,2.919 -12.037,-1.415 -15.393,-3.328 -13.61299,-7.756 -18.95899,-23.783 -18.99999,-38.64 m -260,1 1,1 -1,-1 m -210,32 c 0,24.511 -6.02,46.607 -33,53 -2.944,-23.291 7.069,-48.378 33,-53 m 496.99999,52 c -27.41399,-2.409 -32.45299,-29.937 -31.99999,-52 24.45099,4.359 36.15499,29.618 31.99999,52 m -534.99999,4 c -25.206,0 -43.866,-16.98 -45,-43 26.955,1.161 39.123,19.146 45,43 m 584.99999,-43 c -2.007,24.566 -17.746,42.983 -43,43 0.068,-24.624 19.224,-41.058 43,-43 m -362.99999,4 1,1 -1,-1 m 271,14 c 15.677,11.262 28.56299,24.51 28.28999,45 -0.056,4.248 0.485,17.773 -5.50399,18.469 -5.879,0.683 -13.143,-6.571 -16.601,-10.473 -11.073,-12.498 -15.242,-38.167 -6.185,-52.996 m -445,1 c 7.789,24.519 3.642,55.749 -25,64 -9.834,-22.858 -0.42,-55.569 25,-64 m -29,75 c -29.429,3.719 -52.073,-12.019 -60,-41 26.753,-4.949 55.931,13.448 60,41 m 561.99999,-41 c -8.992,27.588 -29.648,47.31 -60,40 8.65,-29.833 30.965,-40 60,-40 m -528.99999,89 c -27.164,11.141 -62.391,2.179 -74,-28 27.059,-6.188 64.327,-4.872 74,28 m 509.99999,-28 c -7.433,19.218 -32.173,36.197 -52.99999,33.714 -4.84,-0.576 -17.392,-1.437 -19.289,-7.104 -1.99,-5.948 8.497,-15.072 12.289,-18.309 16.637,-14.202 40.04199,-14.641 59.99999,-8.301 m -512.99999,10 1,1 -1,-1 m 441,0 1,1 -1,-1 m -475,46 v -2 c 20.472,-10.914 44.68,-14.365 65,-1.302 4.152,2.669 14.793,8.578 14.793,14.262 0,6.387 -14.925,10.728 -19.793,11.754 -24.502,5.164 -41.677,-8.905 -60,-22.714 m 509.99999,-2 c -2.916,6.123 -9.52999,10.45 -14.99999,14.279 -20.415,14.289 -47.013,16.839 -66,-1.279 20.209,-28.61 53.089,-24.605 80.99999,-13 m -72.99999,-5 1,1 -1,-1 m -315,31 1,1 -1,-1 m 265,0 1,1 -1,-1 m -253,15 c -15.315,36.171 -58.828,19.48 -84,9 19.768,-27.481 58.611,-25.744 84,-9 m 326,9 c -27.987,11.652 -64.245,25.175 -84,-9 26.052,-15.945 63.561,-18.766 84,9 m -283.333,1.333 0.666,0.334 -0.666,-0.334 m 2.333,0.667 v 1 l 9,1 -9,-2 m 42,122 c 4.323,-7.961 5,-12.854 5,-22 -13.127,-0.009 -22.363,-12.424 -9.956,-22.606 7.897,-6.48 22.685,-5.312 31.956,-2.876 17.474,4.591 23.375,29.101 9.907,41.153 -9.761,8.733 -24.857,6.329 -36.907,6.329 m 74,-49 v 13 c -4.286,-3.139 -13.335,-18.552 -18.716,-5.956 -1.917,4.488 2.508,8.401 5.731,10.747 6.743,4.907 15.947,8.643 16.591,18.209 1.075,15.977 -24.858,23.144 -32.149,8.985 -4.426,-8.596 4.15,-19.003 13.499,-15.242 5.486,2.207 6.299,9.171 0.044,10.257 -1.634,-10.549 -13.962,-6.694 -10.947,1.996 3.656,10.536 22.729,10.713 22.729,-1.996 0,-3.57 -2.269,-6.419 -4.826,-8.671 -4.802,-4.231 -11.54,-6.197 -15.522,-11.372 -5.871,-7.628 -0.612,-18.501 8.566,-19.768 5.129,-0.708 10.038,1.315 15,-0.189 m -69,24 c 0,-5.092 0.982,-10.253 -4,-13 v -1 h 15 c -5.261,5.79 -6.955,26.451 -3.397,33.682 3.046,6.19 15.853,0.817 18.839,-2.79 17.147,-20.715 -11.72,-50.128 -33.257,-35.664 -10.277,6.902 -2.638,17.349 6.815,18.772 z"
       id="path271" />
  </g>
</svg>
